<svg width="25" height="26" viewBox="0 0 25 26" fill="none" xmlns="http://www.w3.org/2000/svg">
<path d="M14.043 25.1875C17.3828 21.9482 25 14.0973 25 9.6875C25 4.33919 19.401 0 12.5 0C5.59896 0 0 4.33919 0 9.6875C0 14.0973 7.61719 21.9482 10.957 25.1875C11.7578 25.9595 13.2422 25.9595 14.043 25.1875ZM12.5 6.45833C13.6051 6.45833 14.6649 6.79855 15.4463 7.40413C16.2277 8.00972 16.6667 8.83107 16.6667 9.6875C16.6667 10.5439 16.2277 11.3653 15.4463 11.9709C14.6649 12.5765 13.6051 12.9167 12.5 12.9167C11.3949 12.9167 10.3351 12.5765 9.55372 11.9709C8.77232 11.3653 8.33333 10.5439 8.33333 9.6875C8.33333 8.83107 8.77232 8.00972 9.55372 7.40413C10.3351 6.79855 11.3949 6.45833 12.5 6.45833Z" fill="#8B8B8B"/>
</svg>
