<svg width="30" height="31" viewBox="0 0 30 31" fill="none" xmlns="http://www.w3.org/2000/svg">
<path d="M15 15.5C17.2733 15.5 19.4535 14.6835 21.0609 13.2301C22.6684 11.7767 23.5714 9.80543 23.5714 7.75C23.5714 5.69457 22.6684 3.72333 21.0609 2.26992C19.4535 0.816516 17.2733 0 15 0C12.7267 0 10.5465 0.816516 8.93908 2.26992C7.33163 3.72333 6.42857 5.69457 6.42857 7.75C6.42857 9.80543 7.33163 11.7767 8.93908 13.2301C10.5465 14.6835 12.7267 15.5 15 15.5ZM11.9397 18.4062C5.34375 18.4062 0 23.2379 0 29.2018C0 30.1947 0.890625 31 1.98884 31H28.0112C29.1094 31 30 30.1947 30 29.2018C30 23.2379 24.6562 18.4062 18.0603 18.4062H11.9397Z" fill="#170F49"/>
</svg>
