<svg width="30" height="30" viewBox="0 0 30 30" fill="none" xmlns="http://www.w3.org/2000/svg">
<path d="M3.21429 4.28571V25.7143C3.21429 26.3036 3.69643 26.7857 4.28571 26.7857H25.7143C26.3036 26.7857 26.7857 26.3036 26.7857 25.7143V9.27455C26.7857 8.9933 26.6719 8.71875 26.471 8.51786L28.7411 6.24777C29.5446 7.05134 29.9933 8.14286 29.9933 9.28125V25.7143C29.9933 28.0781 28.0714 30 25.7076 30H4.28571C1.92188 30 0 28.0781 0 25.7143V4.28571C0 1.92188 1.92188 0 4.28571 0H20.7254C21.8638 0 22.9554 0.448661 23.7589 1.25223L28.7478 6.24107L26.4777 8.51116L21.4821 3.52902C21.4621 3.50893 21.4487 3.49554 21.4286 3.47545V10.1786C21.4286 11.0692 20.7121 11.7857 19.8214 11.7857H6.96429C6.07366 11.7857 5.35714 11.0692 5.35714 10.1786V3.21429H4.28571C3.69643 3.21429 3.21429 3.69643 3.21429 4.28571ZM8.57143 3.21429V8.57143H18.2143V3.21429H8.57143ZM10.7143 19.2857C10.7143 18.1491 11.1658 17.059 11.9695 16.2553C12.7733 15.4515 13.8634 15 15 15C16.1366 15 17.2267 15.4515 18.0305 16.2553C18.8342 17.059 19.2857 18.1491 19.2857 19.2857C19.2857 20.4224 18.8342 21.5124 18.0305 22.3162C17.2267 23.1199 16.1366 23.5714 15 23.5714C13.8634 23.5714 12.7733 23.1199 11.9695 22.3162C11.1658 21.5124 10.7143 20.4224 10.7143 19.2857Z" fill="#1E3050"/>
</svg>
