<svg width="300" height="300" viewBox="0 0 300 300" fill="none" xmlns="http://www.w3.org/2000/svg">
<g clip-path="url(#clip0_260_2)">
<path d="M150 300C189.782 300 227.936 284.196 256.066 256.066C284.196 227.936 300 189.782 300 150C300 110.218 284.196 72.0644 256.066 43.934C227.936 15.8035 189.782 0 150 0C110.218 0 72.0644 15.8035 43.934 43.934C15.8035 72.0644 0 110.218 0 150C0 189.782 15.8035 227.936 43.934 256.066C72.0644 284.196 110.218 300 150 300ZM216.211 122.461L141.211 197.461C135.703 202.969 126.797 202.969 121.348 197.461L83.8477 159.961C78.3398 154.453 78.3398 145.547 83.8477 140.098C89.3555 134.648 98.2617 134.59 103.711 140.098L131.25 167.637L196.289 102.539C201.797 97.0312 210.703 97.0312 216.152 102.539C221.602 108.047 221.66 116.953 216.152 122.402L216.211 122.461Z" fill="#3CC895"/>
</g>
<defs>
<clipPath id="clip0_260_2">
<rect width="300" height="300" fill="white"/>
</clipPath>
</defs>
</svg>
