<svg width="30" height="28" viewBox="0 0 30 28" fill="none" xmlns="http://www.w3.org/2000/svg">
<path d="M15 0C18.9782 0 22.7936 1.475 25.6066 4.10051C28.4196 6.72601 30 10.287 30 14C30 17.713 28.4196 21.274 25.6066 23.8995C22.7936 26.525 18.9782 28 15 28C11.0218 28 7.20644 26.525 4.3934 23.8995C1.58035 21.274 0 17.713 0 14C0 10.287 1.58035 6.72601 4.3934 4.10051C7.20644 1.475 11.0218 0 15 0ZM13.5938 6.5625V14C13.5938 14.4375 13.8281 14.8477 14.2207 15.0938L19.8457 18.5938C20.4902 18.9984 21.3633 18.8344 21.7969 18.2273C22.2305 17.6203 22.0547 16.8109 21.4043 16.4062L16.4062 13.3V6.5625C16.4062 5.83516 15.7793 5.25 15 5.25C14.2207 5.25 13.5938 5.83516 13.5938 6.5625Z" fill="#1E3050"/>
</svg>
