<svg width="29" height="32" viewBox="0 0 29 32" fill="none" xmlns="http://www.w3.org/2000/svg">
<path d="M5.625 21.375V4.375C5.625 2.03086 7.30664 0.125 9.375 0.125H24.375C26.4434 0.125 28.125 2.03086 28.125 4.375V17.4902C28.125 18.6191 27.7324 19.7016 27.0293 20.4984L23.6016 24.3832C22.8984 25.1801 21.9434 25.625 20.9473 25.625H9.375C7.30664 25.625 5.625 23.7191 5.625 21.375ZM15.9375 6.5C15.4219 6.5 15 6.97813 15 7.5625V10.75H12.1875C11.6719 10.75 11.25 11.2281 11.25 11.8125V13.9375C11.25 14.5219 11.6719 15 12.1875 15H15V18.1875C15 18.7719 15.4219 19.25 15.9375 19.25H17.8125C18.3281 19.25 18.75 18.7719 18.75 18.1875V15H21.5625C22.0781 15 22.5 14.5219 22.5 13.9375V11.8125C22.5 11.2281 22.0781 10.75 21.5625 10.75H18.75V7.5625C18.75 6.97813 18.3281 6.5 17.8125 6.5H15.9375ZM17.3438 28.8125C18.123 28.8125 18.75 29.523 18.75 30.4062C18.75 31.2895 18.123 32 17.3438 32H7.96875C3.56836 32 0 27.9559 0 22.9688V8.09375C0 7.21055 0.626953 6.5 1.40625 6.5C2.18555 6.5 2.8125 7.21055 2.8125 8.09375V22.9688C2.8125 26.1961 5.12109 28.8125 7.96875 28.8125H17.3438Z" fill="#1E3050"/>
</svg>
