<svg width="25" height="29" viewBox="0 0 25 29" fill="none" xmlns="http://www.w3.org/2000/svg">
<path d="M12.5004 0C11.5127 0 10.7147 0.797991 10.7147 1.78571V2.85714C6.64102 3.68304 3.57183 7.28795 3.57183 11.6071V12.6562C3.57183 15.279 2.60642 17.8125 0.865352 19.7768L0.452406 20.24C-0.0163444 20.7645 -0.127952 21.5179 0.156647 22.1596C0.441245 22.8013 1.08299 23.2143 1.78611 23.2143H23.2147C23.9178 23.2143 24.554 22.8013 24.8441 22.1596C25.1343 21.5179 25.0171 20.7645 24.5484 20.24L24.1354 19.7768C22.3944 17.8125 21.429 15.2846 21.429 12.6562V11.6071C21.429 7.28795 18.3598 3.68304 14.2861 2.85714V1.78571C14.2861 0.797991 13.4881 0 12.5004 0ZM15.0283 27.5279C15.6979 26.8583 16.0718 25.9487 16.0718 25H12.5004H8.92897C8.92897 25.9487 9.30285 26.8583 9.97249 27.5279C10.6421 28.1975 11.5517 28.5714 12.5004 28.5714C13.4491 28.5714 14.3587 28.1975 15.0283 27.5279Z" fill="white"/>
</svg>
