<svg width="30" height="35" viewBox="0 0 30 35" fill="none" xmlns="http://www.w3.org/2000/svg">
<g id="chart-simple-solid 1">
<path id="Vector" d="M10.7143 5.93657C10.7143 4.21398 12.154 2.81641 13.9286 2.81641H16.0714C17.846 2.81641 19.2857 4.21398 19.2857 5.93657V28.8178C19.2857 30.5404 17.846 31.9379 16.0714 31.9379H13.9286C12.154 31.9379 10.7143 30.5404 10.7143 28.8178V5.93657ZM0 18.4172C0 16.6946 1.43973 15.2971 3.21429 15.2971H5.35714C7.1317 15.2971 8.57143 16.6946 8.57143 18.4172V28.8178C8.57143 30.5404 7.1317 31.9379 5.35714 31.9379H3.21429C1.43973 31.9379 0 30.5404 0 28.8178V18.4172ZM24.6429 6.97662H26.7857C28.5603 6.97662 30 8.3742 30 10.0968V28.8178C30 30.5404 28.5603 31.9379 26.7857 31.9379H24.6429C22.8683 31.9379 21.4286 30.5404 21.4286 28.8178V10.0968C21.4286 8.3742 22.8683 6.97662 24.6429 6.97662Z" fill="#1E3050"/>
</g>
</svg>
