<svg width="20" height="19" viewBox="0 0 20 19" fill="none" xmlns="http://www.w3.org/2000/svg">
<path d="M4.83197 14.9044C5.33574 14.5145 5.98792 14.415 6.57371 14.639C7.60861 15.0372 8.76847 15.2653 10.0025 15.2653C14.8724 15.2653 18.1255 11.926 18.1255 8.62824C18.1255 5.33042 14.8724 1.99113 10.0025 1.99113C5.13267 1.99113 1.87959 5.33042 1.87959 8.62824C1.87959 9.95566 2.36384 11.2333 3.27377 12.3284C3.60962 12.7308 3.77364 13.2618 3.73459 13.801C3.67991 14.5519 3.51199 15.2405 3.29329 15.8502C3.95719 15.5225 4.50783 15.1575 4.83197 14.9086V14.9044ZM0.832979 16.5886C0.903274 16.4766 0.969663 16.3646 1.03215 16.2526C1.42267 15.564 1.79367 14.6597 1.86787 13.6434C0.696295 12.2289 0.00506337 10.4991 0.00506337 8.62824C0.00506337 3.86196 4.48049 0 10.0025 0C15.5246 0 20 3.86196 20 8.62824C20 13.3945 15.5246 17.2565 10.0025 17.2565C8.55368 17.2565 7.17903 16.991 5.93716 16.5139C5.47243 16.8748 4.71481 17.3685 3.8166 17.7833C3.2269 18.0571 2.5552 18.306 1.86006 18.4511C1.82882 18.4594 1.79758 18.4636 1.76634 18.4719C1.5945 18.5051 1.42658 18.5341 1.25084 18.5507C1.24303 18.5507 1.23132 18.5549 1.2235 18.5549C1.02434 18.5756 0.825168 18.588 0.626 18.588C0.372158 18.588 0.145653 18.4263 0.0480212 18.1774C-0.0496103 17.9285 0.00506336 17.6464 0.1808 17.4556C0.340916 17.2814 0.485411 17.0947 0.622095 16.8956C0.688484 16.8002 0.750968 16.7048 0.809547 16.6094C0.813452 16.6011 0.817358 16.5969 0.821263 16.5886H0.832979Z" fill="#1E3050"/>
</svg>
