<svg width="30" height="36" viewBox="0 0 30 36" fill="none" xmlns="http://www.w3.org/2000/svg">
<path d="M0 6.67969C0 4.22351 1.68164 2.22656 3.75 2.22656H26.25C28.3184 2.22656 30 4.22351 30 6.67969V28.9453C30 31.4015 28.3184 33.3984 26.25 33.3984H3.75C1.68164 33.3984 0 31.4015 0 28.9453V6.67969ZM3.75 6.67969V11.1328H7.5V6.67969H3.75ZM26.25 6.67969H11.25V11.1328H26.25V6.67969ZM3.75 15.5859V20.0391H7.5V15.5859H3.75ZM26.25 15.5859H11.25V20.0391H26.25V15.5859ZM3.75 24.4922V28.9453H7.5V24.4922H3.75ZM26.25 24.4922H11.25V28.9453H26.25V24.4922Z" fill="white"/>
</svg>
