<svg width="25" height="26" viewBox="0 0 25 26" fill="none" xmlns="http://www.w3.org/2000/svg">
<path d="M4.82143 0.277507L3.44866 2.40169C3.23661 2.72966 3.125 3.10807 3.125 3.49154V3.63281C3.125 4.74788 4.12388 5.65104 5.35714 5.65104C6.5904 5.65104 7.58929 4.74788 7.58929 3.63281V3.49154C7.58929 3.10807 7.47768 2.7347 7.26562 2.40169L5.89286 0.277507C5.78125 0.105957 5.58036 0 5.35714 0C5.13393 0 4.93304 0.105957 4.82143 0.277507ZM11.9643 0.277507L10.5915 2.40169C10.3795 2.72966 10.2679 3.10807 10.2679 3.49154V3.63281C10.2679 4.74788 11.2667 5.65104 12.5 5.65104C13.7333 5.65104 14.7321 4.74788 14.7321 3.63281V3.49154C14.7321 3.10807 14.6205 2.7347 14.4085 2.40169L13.0357 0.277507C12.9241 0.105957 12.7232 0 12.5 0C12.2768 0 12.0759 0.105957 11.9643 0.277507ZM17.7344 2.40169C17.5223 2.72966 17.4107 3.10807 17.4107 3.49154V3.63281C17.4107 4.74788 18.4096 5.65104 19.6429 5.65104C20.8761 5.65104 21.875 4.74788 21.875 3.63281V3.49154C21.875 3.10807 21.7634 2.7347 21.5513 2.40169L20.1786 0.277507C20.067 0.105957 19.8661 0 19.6429 0C19.4196 0 19.2188 0.105957 19.1071 0.277507L17.7344 2.40169ZM7.14286 8.88021C7.14286 7.98714 6.34487 7.26562 5.35714 7.26562C4.36942 7.26562 3.57143 7.98714 3.57143 8.88021V11.3021C1.60156 11.3021 0 12.7502 0 14.5312V18.1136C0.46317 18.376 1.01004 18.5677 1.60714 18.5677C2.36049 18.5677 3.125 18.2599 3.75 17.8916C4.05134 17.715 4.30245 17.5334 4.47545 17.4022C4.55915 17.3366 4.62612 17.2811 4.67076 17.2458C4.69308 17.2256 4.70982 17.2155 4.7154 17.2054L4.72098 17.2004C4.89397 17.0389 5.13393 16.9531 5.38504 16.9582C5.63616 16.9632 5.86496 17.0641 6.03237 17.2306L6.03795 17.2357C6.04353 17.2407 6.06027 17.2559 6.07701 17.271C6.11607 17.3063 6.17188 17.3568 6.25 17.4224C6.40625 17.5535 6.62946 17.7301 6.90848 17.9017C7.47768 18.2599 8.19196 18.5627 8.93415 18.5627C9.67634 18.5627 10.3906 18.2599 10.9598 17.9017C11.2388 17.7251 11.4621 17.5535 11.6183 17.4224C11.6964 17.3568 11.7522 17.3063 11.7913 17.271C11.808 17.2559 11.8248 17.2407 11.8304 17.2357L11.8359 17.2306C12.0033 17.054 12.2489 16.9582 12.5056 16.9582C12.7623 16.9582 13.0078 17.0591 13.1752 17.2306L13.1808 17.2357C13.1864 17.2407 13.2031 17.2559 13.2199 17.271C13.2589 17.3063 13.3147 17.3568 13.3929 17.4224C13.5491 17.5535 13.7723 17.7301 14.0513 17.9017C14.6205 18.2599 15.3348 18.5627 16.077 18.5627C16.8192 18.5627 17.5335 18.2599 18.1027 17.9017C18.3817 17.7251 18.6049 17.5535 18.7612 17.4224C18.8393 17.3568 18.8951 17.3063 18.9342 17.271C18.9509 17.2559 18.9676 17.2407 18.9732 17.2357L18.9788 17.2306C19.1406 17.0591 19.375 16.9632 19.6261 16.9582C19.8772 16.9531 20.1116 17.0389 20.2902 17.2004L20.2958 17.2054C20.3069 17.2155 20.3181 17.2256 20.3404 17.2458C20.385 17.2811 20.4464 17.3366 20.5357 17.4022C20.7087 17.5334 20.9542 17.715 21.2612 17.8916C21.8862 18.2599 22.6507 18.5677 23.404 18.5677C24.0011 18.5677 24.548 18.3709 25.0112 18.1136V14.5312C25.0112 12.7502 23.4096 11.3021 21.4397 11.3021V8.88021C21.4397 7.98714 20.6417 7.26562 19.654 7.26562C18.6663 7.26562 17.8683 7.98714 17.8683 8.88021V11.3021H14.2857V8.88021C14.2857 7.98714 13.4877 7.26562 12.5 7.26562C11.5123 7.26562 10.7143 7.98714 10.7143 8.88021V11.3021H7.14286V8.88021ZM25 19.9098C24.5257 20.0763 23.9844 20.1823 23.3929 20.1823C22.1373 20.1823 21.0268 19.6828 20.279 19.2438C20.0502 19.1076 19.8438 18.9714 19.6708 18.8503C19.5145 18.9714 19.3304 19.1025 19.1239 19.2287C18.404 19.6777 17.3326 20.1823 16.0714 20.1823C14.8103 20.1823 13.7388 19.6777 13.0246 19.2287C12.8292 19.1076 12.6507 18.9814 12.5 18.8654C12.3493 18.9814 12.1708 19.1025 11.9754 19.2287C11.2612 19.6777 10.1897 20.1823 8.92857 20.1823C7.66741 20.1823 6.59598 19.6777 5.8817 19.2287C5.67522 19.0975 5.49107 18.9663 5.33482 18.8503C5.16183 18.9714 4.95536 19.1076 4.72656 19.2438C3.97321 19.6828 2.86272 20.1823 1.60714 20.1823C1.01562 20.1823 0.47433 20.0713 0 19.9098V24.2188C0 25.1118 0.797991 25.8333 1.78571 25.8333H23.2143C24.202 25.8333 25 25.1118 25 24.2188V19.9098Z" fill="#7E7E7E"/>
</svg>
