<svg width="30" height="35" viewBox="0 0 30 35" fill="none" xmlns="http://www.w3.org/2000/svg">
<path d="M15 17.8422C17.2733 17.8422 19.4535 16.9484 21.0609 15.3574C22.6684 13.7664 23.5714 11.6086 23.5714 9.35861C23.5714 7.10861 22.6684 4.95078 21.0609 3.35979C19.4535 1.76881 17.2733 0.875 15 0.875C12.7267 0.875 10.5465 1.76881 8.93908 3.35979C7.33163 4.95078 6.42857 7.10861 6.42857 9.35861C6.42857 11.6086 7.33163 13.7664 8.93908 15.3574C10.5465 16.9484 12.7267 17.8422 15 17.8422ZM8.57143 21.5008C3.61607 22.939 0 27.4724 0 32.841C0 33.9279 0.890625 34.8094 1.98884 34.8094H28.0112C29.1094 34.8094 30 33.9279 30 32.841C30 27.4724 26.3839 22.939 21.4286 21.5008V24.8677C23.2768 25.3383 24.6429 27.0019 24.6429 28.9769V31.6281C24.6429 32.2113 24.1607 32.6885 23.5714 32.6885H22.5C21.9107 32.6885 21.4286 32.2113 21.4286 31.6281C21.4286 31.0448 21.9107 30.5676 22.5 30.5676V28.9769C22.5 27.8038 21.5424 26.856 20.3571 26.856C19.1719 26.856 18.2143 27.8038 18.2143 28.9769V30.5676C18.8036 30.5676 19.2857 31.0448 19.2857 31.6281C19.2857 32.2113 18.8036 32.6885 18.2143 32.6885H17.1429C16.5536 32.6885 16.0714 32.2113 16.0714 31.6281V28.9769C16.0714 27.0019 17.4375 25.3383 19.2857 24.8677V21.0832C18.8839 21.0434 18.4754 21.0236 18.0603 21.0236H11.9397C11.5246 21.0236 11.1161 21.0434 10.7143 21.0832V25.4178C12.2612 25.8751 13.3929 27.2935 13.3929 28.9769C13.3929 31.0249 11.7121 32.6885 9.64286 32.6885C7.57366 32.6885 5.89286 31.0249 5.89286 28.9769C5.89286 27.2935 7.02455 25.8751 8.57143 25.4178V21.5008ZM9.64286 30.5676C10.0691 30.5676 10.4779 30.4 10.7793 30.1017C11.0807 29.8034 11.25 29.3988 11.25 28.9769C11.25 28.5551 11.0807 28.1505 10.7793 27.8522C10.4779 27.5539 10.0691 27.3863 9.64286 27.3863C9.21662 27.3863 8.80783 27.5539 8.50644 27.8522C8.20504 28.1505 8.03571 28.5551 8.03571 28.9769C8.03571 29.3988 8.20504 29.8034 8.50644 30.1017C8.80783 30.4 9.21662 30.5676 9.64286 30.5676Z" fill="white"/>
</svg>
