<svg width="13" height="16" viewBox="0 0 13 16" fill="none" xmlns="http://www.w3.org/2000/svg">
<g clip-path="url(#clip0_618_501)">
<path d="M2.38864 11H4.15565C4.96921 11 5.62816 11.5594 5.62816 12.25V13.75C5.62816 14.4406 4.96921 15 4.15565 15H2.38864C1.57508 15 0.916138 14.4406 0.916138 13.75V12.25C0.916138 11.5594 1.57508 11 2.38864 11ZM9.45667 11H11.2237C12.0372 11 12.6962 11.5594 12.6962 12.25V13.75C12.6962 14.4406 12.0372 15 11.2237 15H9.45667C8.64311 15 7.98416 14.4406 7.98416 13.75V12.25C7.98416 11.5594 8.64311 11 9.45667 11ZM2.38864 10C1.57508 10 0.916138 9.44063 0.916138 8.75V7.25C0.916138 6.55937 1.57508 6 2.38864 6H4.15565C4.96921 6 5.62816 6.55937 5.62816 7.25V8.75C5.62816 9.44063 4.96921 10 4.15565 10H2.38864ZM9.45667 6H11.2237C12.0372 6 12.6962 6.55937 12.6962 7.25V8.75C12.6962 9.44063 12.0372 10 11.2237 10H9.45667C8.64311 10 7.98416 9.44063 7.98416 8.75V7.25C7.98416 6.55937 8.64311 6 9.45667 6ZM2.38864 5C1.57508 5 0.916138 4.44062 0.916138 3.75V2.25C0.916138 1.55937 1.57508 1 2.38864 1H4.15565C4.96921 1 5.62816 1.55937 5.62816 2.25V3.75C5.62816 4.44062 4.96921 5 4.15565 5H2.38864ZM9.45667 1H11.2237C12.0372 1 12.6962 1.55937 12.6962 2.25V3.75C12.6962 4.44062 12.0372 5 11.2237 5H9.45667C8.64311 5 7.98416 4.44062 7.98416 3.75V2.25C7.98416 1.55937 8.64311 1 9.45667 1Z" fill="#1E3050"/>
</g>
<defs>
<clipPath id="clip0_618_501">
<rect width="11.78" height="16" fill="white" transform="translate(0.916138)"/>
</clipPath>
</defs>
</svg>
