<svg width="30" height="27" viewBox="0 0 30 27" fill="none" xmlns="http://www.w3.org/2000/svg">
<g clip-path="url(#clip0_556_608)">
<path d="M15 1.66699C10.7917 1.66699 7.42192 3.58366 4.96879 5.86491C2.53129 8.12533 0.901082 10.8337 0.130249 12.693C-0.041626 13.1045 -0.041626 13.5628 0.130249 13.9743C0.901082 15.8337 2.53129 18.542 4.96879 20.8024C7.42192 23.0837 10.7917 25.0003 15 25.0003C19.2084 25.0003 22.5782 23.0837 25.0313 20.8024C27.4688 18.5368 29.099 15.8337 29.875 13.9743C30.0469 13.5628 30.0469 13.1045 29.875 12.693C29.099 10.8337 27.4688 8.12533 25.0313 5.86491C22.5782 3.58366 19.2084 1.66699 15 1.66699ZM7.50004 13.3337C7.50004 11.3445 8.29022 9.43688 9.69674 8.03036C11.1033 6.62384 13.0109 5.83366 15 5.83366C16.9892 5.83366 18.8968 6.62384 20.3033 8.03036C21.7099 9.43688 22.5 11.3445 22.5 13.3337C22.5 15.3228 21.7099 17.2304 20.3033 18.637C18.8968 20.0435 16.9892 20.8337 15 20.8337C13.0109 20.8337 11.1033 20.0435 9.69674 18.637C8.29022 17.2304 7.50004 15.3228 7.50004 13.3337ZM15 10.0003C15 11.8389 13.5052 13.3337 11.6667 13.3337C11.2969 13.3337 10.9427 13.2712 10.6094 13.1618C10.323 13.068 9.98962 13.2451 10 13.5472C10.0157 13.9066 10.0677 14.266 10.1667 14.6253C10.8802 17.292 13.625 18.8753 16.2917 18.1618C18.9584 17.4482 20.5417 14.7035 19.8282 12.0368C19.25 9.87533 17.3386 8.4222 15.2136 8.33366C14.9115 8.32324 14.7344 8.65137 14.8282 8.94303C14.9375 9.27637 15 9.63053 15 10.0003Z" fill="white"/>
</g>
<defs>
<clipPath id="clip0_556_608">
<rect width="30" height="26.6667" fill="white"/>
</clipPath>
</defs>
</svg>
