<svg width="30" height="27" viewBox="0 0 30 27" fill="none" xmlns="http://www.w3.org/2000/svg">
<g id="folder-open-solid 2">
<path id="Vector" d="M4.61979 11.6566L0 19.5732V5.00033C0 3.16178 1.49479 1.66699 3.33333 1.66699H9.45312C10.3385 1.66699 11.1875 2.01595 11.8125 2.64095L13.1927 4.02116C13.8177 4.64616 14.6667 4.99512 15.5521 4.99512H21.6667C23.5052 4.99512 25 6.48991 25 8.32845V9.99512H7.5C6.3125 9.99512 5.21875 10.6253 4.61979 11.6514V11.6566ZM6.05729 12.4951C6.35938 11.9795 6.90625 11.667 7.5 11.667H28.3333C28.9323 11.667 29.4792 11.9847 29.776 12.5055C30.0729 13.0264 30.0729 13.6618 29.7708 14.1774L23.9375 24.1774C23.6406 24.6878 23.0938 25.0003 22.5 25.0003H1.66667C1.06771 25.0003 0.520833 24.6826 0.223958 24.1618C-0.0729166 23.6409 -0.0729167 23.0055 0.229167 22.4899L6.0625 12.4899L6.05729 12.4951Z" fill="#1E3050"/>
</g>
</svg>
