<svg width="25" height="29" viewBox="0 0 25 29" fill="none" xmlns="http://www.w3.org/2000/svg">
<g clip-path="url(#clip0_474_166)">
<path d="M8.88951 0.301284C9.32478 -0.106082 10 -0.100502 10.4353 0.306864C11.9754 1.75218 13.4208 3.3091 14.7712 4.99436C15.385 4.19079 16.0826 3.31468 16.8359 2.60039C17.2768 2.18744 17.9576 2.18744 18.3984 2.60597C20.3292 4.44749 21.9643 6.88052 23.1138 9.19079C24.2467 11.4676 25 13.7946 25 15.4352C25 22.5557 19.4308 28.5714 12.5 28.5714C5.49107 28.5714 0 22.5502 0 15.4296C0 13.2868 0.993304 10.6696 2.53348 8.0803C4.0904 5.45195 6.28906 2.712 8.88951 0.301284ZM12.5949 23.2142C14.0067 23.2142 15.2567 22.8236 16.4342 22.0424C18.7835 20.4017 19.4141 17.1205 18.0022 14.5424C17.7511 14.0401 17.1094 14.0066 16.7467 14.4307L15.3404 16.0658C14.9721 16.4899 14.308 16.4787 13.9621 16.0379C13.0413 14.866 11.3951 12.7734 10.4576 11.5848C10.106 11.1383 9.43638 11.1328 9.07924 11.5792C7.19308 13.9508 6.24442 15.4464 6.24442 17.1261C6.25 20.9486 9.07366 23.2142 12.5949 23.2142Z" fill="url(#paint0_linear_474_166)"/>
</g>
<defs>
<linearGradient id="paint0_linear_474_166" x1="12.5" y1="-0.00146484" x2="12.5" y2="28.5714" gradientUnits="userSpaceOnUse">
<stop stop-color="#FF0000"/>
<stop offset="1" stop-color="#FF8A00"/>
</linearGradient>
<clipPath id="clip0_474_166">
<rect width="25" height="28.5714" fill="white"/>
</clipPath>
</defs>
</svg>
