<svg width="25" height="26" viewBox="0 0 25 26" fill="none" xmlns="http://www.w3.org/2000/svg">
<path d="M12.5 12.9167C14.3944 12.9167 16.2112 12.2362 17.5508 11.0251C18.8903 9.81389 19.6429 8.17119 19.6429 6.45833C19.6429 4.74548 18.8903 3.10277 17.5508 1.8916C16.2112 0.68043 14.3944 0 12.5 0C10.6056 0 8.78878 0.68043 7.44924 1.8916C6.10969 3.10277 5.35714 4.74548 5.35714 6.45833C5.35714 8.17119 6.10969 9.81389 7.44924 11.0251C8.78878 12.2362 10.6056 12.9167 12.5 12.9167ZM9.94978 15.3385C4.45312 15.3385 0 19.3649 0 24.3348C0 25.1623 0.742188 25.8333 1.65737 25.8333H23.3426C24.2578 25.8333 25 25.1623 25 24.3348C25 19.3649 20.5469 15.3385 15.0502 15.3385H9.94978Z" fill="#8B8B8B"/>
</svg>
