<?xml version="1.0" encoding="UTF-8"?>
<!-- Generator: visioncortex VTracer 0.6.2 -->
<svg version="1.1" xmlns="http://www.w3.org/2000/svg" width="1280" height="1037">
<path d="M0 0 C3.95146171 0.00495394 7.90287769 -0.00756803 11.85432418 -0.01772753 C18.76301013 -0.03310577 25.67163311 -0.0374558 32.5803345 -0.03435919 C42.85371911 -0.02976577 53.12703451 -0.0423102 63.40040562 -0.05798307 C82.81587331 -0.08692767 102.23131714 -0.09543276 121.64680387 -0.09715424 C136.63577327 -0.09853457 151.62473337 -0.10471839 166.61369975 -0.11425612 C170.93304807 -0.11694881 175.25239641 -0.11961826 179.57174475 -0.12228075 C181.18253572 -0.12327547 181.18253572 -0.12327547 182.82586792 -0.12429028 C213.00902512 -0.1427391 243.19217911 -0.15459327 273.37534221 -0.15326044 C274.51219576 -0.15321371 275.64904932 -0.15316697 276.82035298 -0.15311882 C282.58205918 -0.15286951 288.34376537 -0.15257238 294.10547157 -0.15226469 C295.24972042 -0.15220486 296.39396928 -0.15214502 297.57289234 -0.15208337 C299.8868344 -0.15196206 302.20077647 -0.15183667 304.51471853 -0.1517072 C340.54790111 -0.14986731 376.58099913 -0.17242428 412.61415751 -0.21342489 C453.11624194 -0.25949178 493.61827081 -0.28532484 534.1203831 -0.28253523 C538.43721659 -0.28231134 542.75405009 -0.28216522 547.07088359 -0.28207228 C548.13376745 -0.28203732 549.19665131 -0.28200235 550.29174377 -0.28196633 C567.40027799 -0.28187399 584.50873875 -0.30103494 601.61725112 -0.32686907 C618.80025824 -0.35227986 635.98315774 -0.35528285 653.16617323 -0.33554111 C663.37540168 -0.32444426 673.58430345 -0.32998195 683.79349737 -0.35936813 C690.61205135 -0.37733816 697.43036818 -0.37351492 704.24891119 -0.35195663 C708.13418003 -0.34028718 712.01881569 -0.33805432 715.90404041 -0.36232869 C720.09171867 -0.38826381 724.27789936 -0.36768847 728.46558268 -0.34266016 C730.26951581 -0.36501697 730.26951581 -0.36501697 732.10989203 -0.38782543 C742.44743633 -0.25686276 749.89233522 3.20770908 757.18202861 10.52900675 C762.86140124 17.42787657 765.63388322 25.90826582 767.83827861 34.46650675 C769.4011491 37.59224773 770.68900093 38.75539441 773.80702861 40.40400675 C777.41701535 40.20759833 780.77038897 39.23827096 784.24452861 38.27900675 C786.24266171 37.79101116 788.24136054 37.30532606 790.24062236 36.8219755 C793.37488879 36.03565861 796.48294081 35.2121844 799.59218486 34.329788 C814.60664368 30.8817531 830.21754954 40.32532439 843.24452861 46.96650675 C844.10183574 47.40051798 844.95914286 47.83452921 845.842429 48.28169229 C855.06346951 53.20464288 861.22434238 59.51429997 864.80702861 69.40400675 C865.6368853 72.21621937 866.33728115 75.04685328 866.99452861 77.90400675 C867.22692241 78.90621256 867.22692241 78.90621256 867.46401103 79.92866495 C870.83558149 95.95326031 871.09868306 112.10465114 871.06772502 128.40542581 C871.0707514 130.68543339 871.0746433 132.96543995 871.07931758 135.24544474 C871.08954414 141.46527824 871.08742943 147.68505374 871.08313699 153.90489188 C871.08091488 159.93883894 871.08809529 165.97277075 871.09489725 172.00671262 C871.1100872 185.86100896 871.11184733 199.71528693 871.10937422 213.56958986 C871.10753656 224.27686606 871.10931105 234.9841363 871.11359866 245.69141176 C871.11420108 247.2335717 871.11480228 248.77573165 871.11540226 250.31789159 C871.11630959 252.64226396 871.11721827 254.96663633 871.11813461 257.29100869 C871.12655718 278.88657605 871.13090483 300.48214117 871.12672789 322.07770994 C871.12657152 322.8907949 871.12641514 323.70387986 871.12625403 324.54160376 C871.12544833 328.66194628 871.12460256 332.78228878 871.12374073 336.90263129 C871.12356964 337.72083302 871.12339855 338.53903476 871.12322228 339.38203049 C871.12287562 341.03663297 871.12252709 342.69123546 871.12217669 344.34583795 C871.11682448 370.06747094 871.12473852 395.78906961 871.14321025 421.5106962 C871.16397704 450.46155169 871.17464378 479.41238592 871.17063476 508.36324927 C871.17023947 511.45704228 871.16987791 514.5508353 871.16953738 517.64462831 C871.16940128 518.78713795 871.16940128 518.78713795 871.16926244 519.95272859 C871.16810159 531.39831758 871.1747057 542.84388496 871.1853493 554.28946855 C871.19746145 567.32691743 871.19889187 580.36431904 871.18655913 593.40176869 C871.18055685 600.04230951 871.17948246 606.68277821 871.19156154 613.32331827 C871.32796664 694.26917744 871.32796664 694.26917744 857.80702861 711.40400675 C854.71887263 714.31276777 851.36129628 716.54209467 847.65859111 718.595413 C842.15096273 721.69729292 840.15988846 724.60741566 837.80702861 730.40400675 C833.50789534 739.65055528 829.06062284 744.77720963 819.80702861 749.40400675 C814.85552965 751.20234342 809.81927741 752.63096993 804.74452861 754.02900675 C789.70025069 757.49441653 789.70025069 757.49441653 777.18202861 765.77900675 C771.69510891 770.84302157 764.83433697 773.1997997 757.80702861 775.40400675 C756.86522913 775.73389709 755.92342966 776.06378743 754.9530908 776.40367445 C741.25888073 780.56255703 727.21200818 779.96776561 713.04513837 779.9116756 C709.1033387 779.90054327 705.16159628 779.91281023 701.21980108 779.92198309 C694.32292314 779.93484614 687.4261739 779.93295722 680.52929576 779.9212034 C670.27260138 779.903772 660.01600762 779.90933845 649.75930793 779.91937031 C631.43471404 779.93654251 613.11018007 779.9310332 594.78558743 779.91601313 C578.7423276 779.90294832 562.69908854 779.89776787 546.65582354 779.90033129 C545.05796128 779.90057191 545.05796128 779.90057191 543.42781896 779.90081739 C539.10326014 779.90148102 534.77870132 779.90218344 530.45414251 779.90294273 C489.89493157 779.90996479 449.33575715 779.8944843 408.77655551 779.86831927 C372.78401618 779.84522306 336.79151703 779.83980951 300.79897197 779.85005167 C291.58747595 779.85265392 282.37597993 779.85523901 273.16448386 779.85764959 C271.46314466 779.85809576 271.46314466 779.85809576 269.72743496 779.85855095 C239.61499973 779.86617778 209.50256776 779.85974254 179.39013399 779.84895357 C176.14700861 779.84780582 172.90388323 779.84666265 169.66075784 779.84552675 C167.50953613 779.8447715 165.35831442 779.84400585 163.20709271 779.84322974 C147.18604114 779.83758509 131.16499999 779.83889224 115.14394839 779.84345796 C96.90804138 779.84858113 78.67217319 779.84264573 60.43627582 779.82256367 C50.24607524 779.81162866 40.05595104 779.80873604 29.86574823 779.8178522 C23.03934206 779.82311173 16.21300063 779.81727093 9.38660799 779.80279885 C5.51006681 779.79487406 1.63367873 779.7913345 -2.24286111 779.80137142 C-16.59625975 779.83531438 -30.85181624 779.61312087 -45.14280336 778.11415174 C-46.22873863 778.00422632 -47.3146739 777.89430089 -48.4335163 777.78104439 C-59.12494028 776.50730018 -69.50285071 773.00441865 -76.75547139 764.65400675 C-80.95590551 759.88127698 -87.06023891 759.19719617 -93.01279561 757.88545206 C-130.91708352 749.51509867 -130.91708352 749.51509867 -142.19297139 735.40400675 C-144.19149207 732.20315672 -145.93921463 728.97410825 -147.61094014 725.59150675 C-149.02007617 722.75235861 -150.55567395 720.13698955 -152.25547139 717.46650675 C-155.37669332 712.41112337 -157.48830978 707.03474524 -159.60312764 701.50556925 C-161.37497755 698.04893822 -163.10648592 696.69185823 -166.19297139 694.40400675 C-190.99469238 665.42169263 -184.34593127 621.44303897 -184.33835511 585.95579436 C-184.33814908 579.92286385 -184.34368884 573.88993797 -184.34841268 567.85700968 C-184.35667585 556.0671536 -184.35947857 544.27730129 -184.36002506 532.48744292 C-184.36048679 522.89445097 -184.36255641 513.30146061 -184.36572568 503.70846918 C-184.36662339 500.93483987 -184.3675132 498.16121057 -184.36840056 495.38758126 C-184.36873213 494.35293423 -184.36873213 494.35293423 -184.3690704 493.29738525 C-184.37521354 473.92952612 -184.37917208 454.56166754 -184.37872712 435.19380739 C-184.37871154 434.46548392 -184.37869597 433.73716044 -184.37867991 432.98676656 C-184.37859682 429.29634374 -184.37849778 425.60592091 -184.37839521 421.91549809 C-184.37837526 421.18272621 -184.37835532 420.44995433 -184.37833477 419.69497725 C-184.37829433 418.21313871 -184.37825253 416.73130016 -184.37820938 415.24946162 C-184.37759692 392.20542998 -184.3851024 369.16141308 -184.39878194 346.11738565 C-184.41418825 320.1545839 -184.42274548 294.19179182 -184.42181872 268.22898522 C-184.4217441 265.45346978 -184.42169539 262.67795434 -184.4216644 259.90243891 C-184.42165275 259.21916867 -184.42164109 258.53589843 -184.42162909 257.83192303 C-184.4215985 246.90432365 -184.427945 235.97673722 -184.43659667 225.04914168 C-184.44513021 214.04214807 -184.44584934 203.0351708 -184.43948735 192.02817531 C-184.43624597 186.08214265 -184.43607812 180.13615623 -184.4448406 174.19012812 C-184.50058561 133.30786358 -184.50058561 133.30786358 -183.4902889 115.10777262 C-183.43789436 113.96334487 -183.38549982 112.81891713 -183.33151756 111.63980975 C-182.52478979 99.92034442 -178.1629031 89.16165627 -169.65390889 80.91181925 C-167.437975 78.9913432 -165.24375141 77.43025085 -162.63828389 76.08369425 C-159.67315715 74.04694584 -159.18068652 72.73638819 -158.13047139 69.34150675 C-157.80949483 68.3669755 -157.48851827 67.39244425 -157.15781514 66.38838175 C-156.83941671 65.403538 -156.52101827 64.41869425 -156.19297139 63.40400675 C-151.82211344 51.40557316 -146.23643725 42.95524368 -134.38047139 37.40400675 C-123.96973129 32.70522419 -110.70254648 37.56663981 -100.13242452 39.939163 C-90.39438522 41.91659809 -83.54319667 40.88384208 -75.19297139 35.40400675 C-74.53297139 35.40400675 -73.87297139 35.40400675 -73.19297139 35.40400675 C-73.04601827 34.79814737 -72.89906514 34.192288 -72.74765889 33.56806925 C-69.96513052 23.17356669 -64.34456928 12.54372655 -55.41562764 6.126663 C-39.32118483 -2.31893571 -17.5855219 -0.03692927 0 0 Z M732.69765361 64.49775675 C731.56650126 64.83613565 731.56650126 64.83613565 730.41249736 65.1813505 C729.63519267 65.41982706 728.85788798 65.65830362 728.05702861 65.90400675 C727.26425517 66.14248331 726.47148173 66.38095987 725.65468486 66.626663 C723.70398703 67.21422258 721.75530404 67.80846404 719.80702861 68.40400675 C723.89263319 72.48961133 731.10669114 72.52234077 736.68202861 72.71650675 C739.67576276 72.65822166 740.70606881 72.46310517 743.36952861 70.90400675 C743.84390361 70.40900675 744.31827861 69.91400675 744.80702861 69.40400675 C743.65529505 66.93600628 742.75919295 65.35617109 740.80702861 63.40400675 C737.5312872 63.40400675 735.70693704 63.58585267 732.69765361 64.49775675 Z M-36.19297139 68.40400675 C-31.67654546 71.41495737 -26.74155871 73.45823201 -21.25547139 73.34150675 C-19.02476404 72.55396519 -19.02476404 72.55396519 -17.88047139 70.34150675 C-17.65359639 69.70213175 -17.42672139 69.06275675 -17.19297139 68.40400675 C-23.113708 64.45684901 -29.77347559 66.56986509 -36.19297139 68.40400675 Z M661.07902129 96.83372095 C648.87673998 97.63900985 636.67870512 97.54121479 624.45514567 97.5285795 C621.81155024 97.52956733 619.16795783 97.53095871 616.52436318 97.53285268 C610.80394194 97.53618234 605.08352993 97.53594417 599.36310847 97.53329637 C590.85696358 97.52940891 582.35082696 97.53137595 573.84468217 97.53471053 C560.40600219 97.53992033 546.96732421 97.54199789 533.5286433 97.54207541 C512.21073885 97.54232703 490.8928515 97.55402673 469.57495333 97.56968599 C465.03275464 97.57300982 460.49055588 97.57623179 455.94835712 97.57946685 C450.435781 97.58340255 444.92320489 97.58734918 439.41062881 97.59132807 C418.65400966 97.60628121 397.89738984 97.61991117 377.14076884 97.63203409 C376.19280495 97.63259225 375.24484106 97.63315041 374.26815099 97.63372549 C343.47923719 97.65175303 312.69033743 97.65604689 281.90141905 97.65433507 C250.22736297 97.6526672 218.55335329 97.66753421 186.87931534 97.70225991 C182.41042434 97.70714542 177.94153314 97.71182709 173.47264178 97.71637705 C172.15342795 97.71772635 172.15342795 97.71772635 170.80756334 97.71910291 C156.64072399 97.73307635 142.47394185 97.72931292 128.30710181 97.71876513 C114.08701817 97.70851212 99.86703545 97.71610734 85.64697114 97.74218285 C77.1939478 97.75711966 68.74118995 97.75799631 60.28817324 97.73904416 C53.98753628 97.72643575 47.68720847 97.73968531 41.38660847 97.76323175 C38.82987758 97.76868187 36.27311207 97.76557645 33.71640477 97.75331479 C30.25571738 97.73792839 26.79648389 97.75295541 23.33587058 97.77594354 C22.33057851 97.76412697 21.32528644 97.7523104 20.28953098 97.74013576 C14.3897549 97.77391506 14.3897549 97.77391506 9.64897598 100.9432607 C9.04113335 101.75530689 8.43329071 102.56735309 7.80702861 103.40400675 C12.16616254 107.63985205 16.10537185 108.36689087 21.86952861 109.34150675 C36.03219217 112.05321925 49.14877746 117.0442369 58.54921611 128.5251005 C59.90814308 130.55505042 60.7699397 132.60455662 61.74452861 134.84150675 C66.46535516 143.69494186 78.62363844 147.20178521 87.68202861 150.02900675 C98.23017199 153.35767895 104.44162417 157.65190356 109.80702861 167.40400675 C110.32265361 168.51775675 110.83827861 169.63150675 111.36952861 170.77900675 C113.34892673 174.39355984 115.77079694 175.79009887 119.72133525 176.98115518 C121.99436049 177.54427214 124.27427401 178.06929291 126.55702861 178.59150675 C143.43471857 182.75167343 160.29566803 189.9875982 169.61952861 205.4001005 C174.95825725 212.73131893 184.6340351 215.52853237 193.05702861 217.96650675 C203.18304051 220.93319598 209.31156725 224.38146659 214.51796611 233.7438505 C215.80702861 236.40400675 215.80702861 236.40400675 216.95937236 240.06025675 C218.54297328 243.7357689 218.54297328 243.7357689 222.47499736 244.970413 C223.97550688 245.32858831 225.4827875 245.65916782 226.99452861 245.96650675 C228.63005839 246.36041603 230.26416279 246.76028539 231.89687236 247.1657255 C233.13219706 247.46615763 233.13219706 247.46615763 234.39247783 247.77265909 C247.50213033 251.20052172 266.9396555 257.54567338 274.60780986 269.12275675 C275.61384599 270.97365527 276.61387795 272.82783019 277.60780986 274.68525675 C283.01241411 281.36661476 291.15319576 283.30332153 299.18202861 285.27900675 C310.19419749 288.20640189 317.76169041 292.14694913 325.80702861 300.40400675 C329.37280881 303.00553786 332.98202197 305.58967398 337.02187236 307.392288 C338.80702861 308.40400675 338.80702861 308.40400675 339.80702861 311.40400675 C342.23297853 312.29840752 344.49695581 312.98309328 346.99452861 313.59150675 C347.65517314 313.76875284 348.31581767 313.94599893 348.99648173 314.12861612 C353.00746411 315.15412889 356.67391594 315.75639641 360.80702861 315.40400675 C366.14848466 312.13372753 367.9929512 308.34448064 370.60390361 302.767288 C374.95101569 294.22831783 384.71392993 290.13624455 393.28749736 287.02900675 C394.87938552 286.43029108 396.47117967 285.83132539 398.06288798 285.23213175 C400.53637287 284.31272676 403.01139798 283.39781057 405.48842509 282.48799112 C407.90513089 281.59660867 410.31514597 280.68872702 412.72499736 279.77900675 C413.46155055 279.51426554 414.19810374 279.24952432 414.95697673 278.97676065 C421.70706541 276.4132215 425.43263762 272.04838221 429.80702861 266.40400675 C430.92077861 265.07369425 430.92077861 265.07369425 432.05702861 263.71650675 C434.00817616 261.62154244 434.00817616 261.62154244 433.80702861 259.40400675 C434.38066142 259.12170206 434.95429423 258.83939737 435.54530986 258.548538 C436.97459284 257.82525663 438.39112651 257.07566769 439.78749736 256.2907255 C445.17797021 253.3617429 450.48429647 251.56277343 456.36952861 249.96650675 C467.50297559 246.8836504 467.50297559 246.8836504 475.35780986 238.8219755 C476.82018057 236.0262357 476.82018057 236.0262357 477.93202861 233.282913 C483.08532045 225.37046282 491.69490514 221.71559043 500.18202861 218.34150675 C501.7461851 217.69339029 501.7461851 217.69339029 503.34194072 217.03218057 C509.13565709 214.68087049 514.86566809 212.78116244 520.91786845 211.23042276 C528.51956053 209.359422 528.51956053 209.359422 534.28749736 204.361038 C536.08979826 200.94790969 536.08979826 200.94790969 537.49843486 197.46650675 C540.29720444 190.91655047 545.26002182 188.48718973 551.55702861 185.71650675 C555.46036776 184.17558705 559.28918608 182.99217773 563.36952861 182.02900675 C570.73163883 180.08489972 577.42065156 176.94324586 581.77187236 170.48994425 C582.91503526 168.40062611 584.04540709 166.30425546 585.16249736 164.20088175 C592.10577838 152.3923563 610.51544938 147.81355468 622.96718486 144.392288 C626.01171781 143.60870017 629.03949996 142.9010815 632.11952861 142.27900675 C635.74903114 141.41776886 637.17784567 140.91864022 639.80702861 138.40400675 C640.89750078 135.73329281 640.89750078 135.73329281 641.61952861 132.71650675 C643.5369648 126.6568229 645.64775166 122.26897031 650.80702861 118.40400675 C656.6106944 115.50975044 662.7019172 113.69543719 668.93202861 111.96650675 C674.68418343 110.33925242 679.67742193 107.41740687 684.80702861 104.40400675 C684.14228777 101.3349129 684.14228777 101.3349129 681.95155986 100.27119425 C681.18198954 99.94377237 680.41241923 99.6163505 679.61952861 99.27900675 C678.86284892 98.94642862 678.10616923 98.6138505 677.32655986 98.27119425 C671.84940644 96.38603447 666.78541665 96.38607181 661.07902129 96.83372095 Z M-22.19297139 259.40400675 C-23.17460561 261.34025773 -24.15319594 263.27805213 -25.13047139 265.21650675 C-25.67574483 266.29545206 -26.22101827 267.37439737 -26.78281514 268.486038 C-28.88638549 272.83885531 -29.32143395 275.93832019 -29.33557241 280.73504999 C-29.33882343 281.38306147 -29.34207445 282.03107295 -29.34542398 282.69872114 C-29.35514153 284.88510003 -29.35771812 287.07142943 -29.36032979 289.25782755 C-29.36577514 290.83522786 -29.37163849 292.41262678 -29.37788551 293.99002412 C-29.39375673 298.33652973 -29.4032585 302.68302969 -29.41165034 307.02955535 C-29.4196483 310.75467487 -29.43134004 314.47977908 -29.44306515 318.20488846 C-29.48498932 331.54728301 -29.51217729 344.88969554 -29.53672139 358.23213175 C-29.53869629 359.28471749 -29.54067119 360.33730322 -29.54270594 361.4217855 C-29.58186123 382.31408418 -29.61557405 403.20638878 -29.63778798 424.09871271 C-29.64275744 428.69282774 -29.64780175 433.28694268 -29.65293233 437.88105753 C-29.654203 439.02293031 -29.65547367 440.16480309 -29.65678285 441.34127807 C-29.67815188 459.84687924 -29.72715603 478.35230307 -29.78717647 496.85781496 C-29.84826159 515.84780032 -29.88297058 534.83769409 -29.89226119 553.82777646 C-29.89817755 564.49383488 -29.91598381 575.15959278 -29.96364705 585.82555368 C-30.00419396 594.90747905 -30.02114625 603.98905485 -30.00699423 613.07106673 C-30.0005156 617.70605116 -30.00545683 622.34029062 -30.04086797 626.97516039 C-30.07302579 631.21822337 -30.07289945 635.46001412 -30.04705094 639.7031089 C-30.04339647 641.2381466 -30.05159621 642.77326772 -30.07283245 644.30816287 C-30.09998999 646.39685453 -30.08385766 648.4810004 -30.05709951 650.56959894 C-30.05921548 651.72877777 -30.06133145 652.8879566 -30.06351154 654.08226207 C-28.78167328 658.97340862 -26.52553687 661.78092617 -22.19297139 664.40400675 C-18.12196133 665.39470256 -14.18383755 665.34465356 -10.0096771 665.28489473 C-8.16149738 665.30015586 -8.16149738 665.30015586 -6.2759807 665.31572529 C-2.85195915 665.33688933 0.56937608 665.32667654 3.99321161 665.30327963 C7.71637237 665.28553034 11.43932053 665.30833891 15.16245122 665.32598296 C21.68908848 665.35128109 28.21532056 665.35048839 34.74197657 665.33265283 C44.44769403 665.30620188 54.15306896 665.31969796 63.85878403 665.34111098 C81.19473648 665.37800299 98.53050855 665.37476288 115.86647824 665.3545586 C131.04357665 665.33695725 146.22060889 665.33234918 161.3977154 665.3407171 C162.40402756 665.3412518 163.41033972 665.3417865 164.44714619 665.34233739 C168.53209359 665.34451676 172.61704097 665.34674555 176.7019883 665.34905574 C215.04183641 665.37047983 253.38156964 665.35103994 291.72140002 665.31337746 C325.77230271 665.28018231 359.82302209 665.28310807 393.87392314 665.3166044 C432.12805243 665.35410968 470.38208005 665.36893521 508.63622518 665.34731856 C512.71687815 665.34507357 516.79753114 665.34288368 520.87818415 665.3407171 C522.38532694 665.33988679 522.38532694 665.33988679 523.92291705 665.33903971 C539.08228683 665.3310843 554.24158305 665.34037697 569.40094264 665.35807398 C586.64927517 665.37810922 603.89739898 665.37304291 621.14570558 665.33510877 C630.79375545 665.31458848 640.44135313 665.31316322 650.08939105 665.33963199 C656.54199535 665.35537794 662.99423865 665.34547184 669.44678964 665.31509861 C673.11838584 665.29851656 676.78908678 665.29260335 680.46065342 665.31794049 C695.94336175 665.41736226 709.07252565 665.10013885 722.80702861 657.40400675 C722.96717437 608.96905104 723.09055745 560.53412203 723.16448591 512.09895374 C723.17324109 506.38358035 723.18230132 500.66820748 723.19155009 494.95283487 C723.19430435 493.24605932 723.19430435 493.24605932 723.19711425 491.50480346 C723.22759159 473.06947568 723.28279359 454.63430035 723.34709818 436.19906307 C723.41250853 417.2894161 723.45142942 398.3798491 723.46564807 379.47009363 C723.47526341 367.79725545 723.50565575 356.12484816 723.56244387 344.45214258 C723.59938358 336.4528218 723.61064341 328.45372448 723.60153825 320.45432456 C723.5970449 315.83567776 723.60403703 311.21778501 723.64146693 306.59927156 C723.67547506 302.37218999 723.6772913 298.14637103 723.65332087 293.91923193 C723.65035748 292.3888273 723.65928856 290.85834462 723.68121088 289.32809414 C724.04589077 281.37513078 724.04589077 281.37513078 721.27818199 274.19219783 C719.51756741 272.64552954 717.87092377 271.50082328 715.80702861 270.40400675 C715.00136454 269.91029581 714.19570048 269.41658487 713.36562236 268.907913 C712.31568095 268.4419169 712.31568095 268.4419169 711.24452861 267.96650675 C710.19072001 267.47344034 710.19072001 267.47344034 709.11562236 266.970413 C702.61656431 265.37588945 695.81939991 269.10003562 689.86952861 271.46650675 C688.90595439 271.82422159 687.94238017 272.18193643 686.94960673 272.55049112 C680.09994486 275.28005563 676.22328144 278.56113736 671.80702861 284.40400675 C670.47369527 285.73734008 669.14036194 287.07067341 667.80702861 288.40400675 C667.42675517 288.92607706 667.04648173 289.44814737 666.65468486 289.986038 C659.93995331 298.9195504 649.26406547 301.89474978 638.85854228 304.58027628 C633.06875633 306.11866806 627.55933321 307.81466378 624.05702861 312.98994425 C623.43827861 314.37053018 623.43827861 314.37053018 622.80702861 315.77900675 C618.32849492 325.71575337 609.49637938 329.34535489 600.06581767 333.61836222 C598.07009322 334.52308416 596.08271732 335.44434681 594.09609111 336.3688505 C587.48615136 339.42118744 580.86649529 342.25000295 573.951804 344.55708292 C568.96904747 346.52466202 566.74842951 350.49442019 564.05702861 354.84150675 C557.55202366 364.80591635 546.37964624 368.09819545 535.30702861 370.71650675 C524.42199441 373.66680132 518.51478985 379.19513615 512.66640361 388.611038 C504.41579782 401.00427988 485.40145543 405.95329299 471.73280986 409.39619425 C463.84867064 411.26074827 463.84867064 411.26074827 457.80702861 416.40400675 C456.82930947 418.3325846 455.91548173 420.29446512 455.05702861 422.27900675 C450.41016391 431.82831369 443.49981566 435.01441604 433.80702861 438.40400675 C432.94077861 438.69662393 432.07452861 438.98924112 431.18202861 439.2907255 C420.59731733 442.93691238 410.98294504 446.77534635 404.46718486 456.204788 C401.5472646 460.07282354 397.77385395 462.68296126 393.80702861 465.40400675 C393.05808329 465.92865518 392.30913798 466.45330362 391.53749736 466.9938505 C370.86399218 480.4676275 347.09708855 478.20549853 323.80702861 474.40400675 C314.94784183 472.50848267 305.56927798 469.75555956 300.17030986 462.07588175 C297.93598534 458.46201062 296.00682337 454.86186975 294.30702861 450.96650675 C292.074066 447.1518623 288.90252816 445.99442856 284.70058329 444.81050089 C282.2828348 444.23336259 279.85881316 443.69181959 277.43202861 443.15400675 C263.70465733 439.90646835 246.73830008 435.03882286 238.43202861 422.84150675 C237.03108862 420.5434736 235.73568342 418.26043827 234.53749736 415.84931925 C232.2737889 412.65048969 230.00544019 411.55521331 226.49452861 409.84150675 C225.88004863 409.54123575 225.26556865 409.24096475 224.63246806 408.93159464 C220.35001641 406.91757304 216.08368047 405.5386768 211.49452861 404.34150675 C202.18520864 401.86041139 196.31315834 398.08901633 191.09609111 389.94306925 C189.80702861 387.40400675 189.80702861 387.40400675 189.35585673 385.45137003 C188.76012283 383.11091004 188.16494611 381.41008212 186.80702861 379.40400675 C183.40523379 377.5763758 179.80838147 376.86100972 176.05702861 376.02900675 C139.95944205 366.73205662 139.95944205 366.73205662 129.80702861 353.40400675 C128.65859111 351.23994425 128.65859111 351.23994425 127.74452861 349.15400675 C125.95152253 345.11173858 123.81362945 343.49716684 119.88124736 341.5407255 C115.84258749 340.04739637 111.73569897 339.05184424 107.55702861 338.02900675 C93.34388437 334.53532686 78.99576591 327.65233749 70.80702861 314.96650675 C63.64947679 305.09461765 48.67218671 300.5779782 37.60780986 296.52900675 C27.90940635 292.63341371 23.04374016 286.60770389 18.30702861 277.52900675 C14.84001806 272.61740847 8.21548389 271.56505257 2.68202861 270.09150675 C-4.77237146 268.01280604 -11.40215361 265.14499037 -18.19297139 261.40400675 C-19.52316018 260.73108772 -20.85530129 260.06192841 -22.19297139 259.40400675 Z " fill="#000000" transform="translate(281.192971393466,155.5959932534024)"/>
</svg>
