<svg width="20" height="19" viewBox="0 0 20 19" fill="none" xmlns="http://www.w3.org/2000/svg">
<path d="M8.82031 18.0822L8.72266 17.9844L1.87891 11.0683C0.679688 9.8568 0 8.15646 0 6.37535V6.23507C0 3.24248 1.95312 0.674964 4.65625 0.113852C6.19531 -0.209213 7.76953 0.177615 9.02344 1.13831C9.375 1.41036 9.70312 1.72492 10 2.08625C10.1641 1.8822 10.3398 1.69517 10.5273 1.52088C10.6719 1.38486 10.8203 1.25733 10.9766 1.13831C12.2305 0.177615 13.8047 -0.209213 15.3438 0.109601C18.0469 0.670713 20 3.24248 20 6.23507V6.37535C20 8.15646 19.3203 9.8568 18.1211 11.0683L11.2773 17.9844L11.1797 18.0822C10.8594 18.4053 10.4375 18.588 10 18.588C9.5625 18.588 9.14062 18.4095 8.82031 18.0822ZM9.33984 4.34345C9.32422 4.33069 9.3125 4.31369 9.30078 4.29669L8.60547 3.44652L8.60156 3.44227C7.69922 2.3413 6.33594 1.8397 5.00781 2.116C3.1875 2.49433 1.875 4.22017 1.875 6.23507V6.37535C1.875 7.58684 2.33984 8.74732 3.15625 9.57199L10 16.4881L16.8438 9.57199C17.6602 8.74732 18.125 7.58684 18.125 6.37535V6.23507C18.125 4.22442 16.8125 2.49433 14.9961 2.116C13.668 1.8397 12.3008 2.34555 11.4023 3.44227C11.4023 3.44227 11.4023 3.44227 11.3984 3.44652C11.3945 3.45077 11.3984 3.44652 11.3945 3.45077L10.6992 4.30094C10.6875 4.31794 10.6719 4.33069 10.6602 4.3477C10.4844 4.53899 10.2461 4.64526 10 4.64526C9.75391 4.64526 9.51562 4.53899 9.33984 4.3477V4.34345Z" fill="#1E3050"/>
</svg>
