<svg width="30" height="30" viewBox="0 0 30 30" fill="none" xmlns="http://www.w3.org/2000/svg">
<path d="M30 15C30 11.0218 28.4196 7.20644 25.6066 4.3934C22.7936 1.58035 18.9782 0 15 0C11.0218 0 7.20644 1.58035 4.3934 4.3934C1.58035 7.20644 0 11.0218 0 15C0 18.9782 1.58035 22.7936 4.3934 25.6066C7.20644 28.4196 11.0218 30 15 30C18.9782 30 22.7936 28.4196 25.6066 25.6066C28.4196 22.7936 30 18.9782 30 15ZM12.7383 22.084L6.88477 15.8086C6.67969 15.5859 6.5625 15.2988 6.5625 15C6.5625 14.7012 6.67969 14.4082 6.88477 14.1914L12.7383 7.91602C12.9844 7.65234 13.3301 7.5 13.6934 7.5C14.4141 7.5 15 8.08594 15 8.80664V12.1875H20.625C21.6621 12.1875 22.5 13.0254 22.5 14.0625V15.9375C22.5 16.9746 21.6621 17.8125 20.625 17.8125H15V21.1934C15 21.9141 14.4141 22.5 13.6934 22.5C13.3301 22.5 12.9844 22.3477 12.7383 22.084Z" fill="white"/>
</svg>
