<svg width="50" height="40" viewBox="0 0 50 40" fill="none" xmlns="http://www.w3.org/2000/svg">
<g clip-path="url(#clip0_618_727)">
<path d="M15 3.75C15 1.67969 16.6797 0 18.75 0H31.25C33.3203 0 35 1.67969 35 3.75V40H28.75V33.75C28.75 31.6797 27.0703 30 25 30C22.9297 30 21.25 31.6797 21.25 33.75V40H15V3.75ZM3.75 7.5H12.5V40H3.75C1.67969 40 0 38.3203 0 36.25V25H6.25C6.9375 25 7.5 24.4375 7.5 23.75C7.5 23.0625 6.9375 22.5 6.25 22.5H0V17.5H6.25C6.9375 17.5 7.5 16.9375 7.5 16.25C7.5 15.5625 6.9375 15 6.25 15H0V11.25C0 9.17969 1.67969 7.5 3.75 7.5ZM46.25 7.5C48.3203 7.5 50 9.17969 50 11.25V15H43.75C43.0625 15 42.5 15.5625 42.5 16.25C42.5 16.9375 43.0625 17.5 43.75 17.5H50V22.5H43.75C43.0625 22.5 42.5 23.0625 42.5 23.75C42.5 24.4375 43.0625 25 43.75 25H50V36.25C50 38.3203 48.3203 40 46.25 40H37.5V7.5H46.25ZM24.375 5C23.6875 5 23.125 5.5625 23.125 6.25V8.125H21.25C20.5625 8.125 20 8.6875 20 9.375V10.625C20 11.3125 20.5625 11.875 21.25 11.875H23.125V13.75C23.125 14.4375 23.6875 15 24.375 15H25.625C26.3125 15 26.875 14.4375 26.875 13.75V11.875H28.75C29.4375 11.875 30 11.3125 30 10.625V9.375C30 8.6875 29.4375 8.125 28.75 8.125H26.875V6.25C26.875 5.5625 26.3125 5 25.625 5H24.375Z" fill="#1E3050"/>
</g>
<defs>
<clipPath id="clip0_618_727">
<rect width="50" height="40" fill="white"/>
</clipPath>
</defs>
</svg>
