<svg width="150" height="120" viewBox="0 0 150 120" fill="none" xmlns="http://www.w3.org/2000/svg">
<g id="hospital-solid 1" clip-path="url(#clip0_564_8)">
<path id="Vector" d="M45 11.25C45 5.03906 50.0391 0 56.25 0H93.75C99.9609 0 105 5.03906 105 11.25V120H86.25V101.25C86.25 95.0391 81.2109 90 75 90C68.7891 90 63.75 95.0391 63.75 101.25V120H45V11.25ZM11.25 22.5H37.5V120H11.25C5.03906 120 0 114.961 0 108.75V75H18.75C20.8125 75 22.5 73.3125 22.5 71.25C22.5 69.1875 20.8125 67.5 18.75 67.5H0V52.5H18.75C20.8125 52.5 22.5 50.8125 22.5 48.75C22.5 46.6875 20.8125 45 18.75 45H0V33.75C0 27.5391 5.03906 22.5 11.25 22.5ZM138.75 22.5C144.961 22.5 150 27.5391 150 33.75V45H131.25C129.188 45 127.5 46.6875 127.5 48.75C127.5 50.8125 129.188 52.5 131.25 52.5H150V67.5H131.25C129.188 67.5 127.5 69.1875 127.5 71.25C127.5 73.3125 129.188 75 131.25 75H150V108.75C150 114.961 144.961 120 138.75 120H112.5V22.5H138.75ZM73.125 15C71.0625 15 69.375 16.6875 69.375 18.75V24.375H63.75C61.6875 24.375 60 26.0625 60 28.125V31.875C60 33.9375 61.6875 35.625 63.75 35.625H69.375V41.25C69.375 43.3125 71.0625 45 73.125 45H76.875C78.9375 45 80.625 43.3125 80.625 41.25V35.625H86.25C88.3125 35.625 90 33.9375 90 31.875V28.125C90 26.0625 88.3125 24.375 86.25 24.375H80.625V18.75C80.625 16.6875 78.9375 15 76.875 15H73.125Z" fill="white"/>
</g>
<defs>
<clipPath id="clip0_564_8">
<rect width="150" height="120" fill="white"/>
</clipPath>
</defs>
</svg>
