<svg width="30" height="34" viewBox="0 0 30 34" fill="none" xmlns="http://www.w3.org/2000/svg">
<path d="M15 16.9976C17.2733 16.9976 19.4535 16.1022 21.0609 14.5084C22.6684 12.9146 23.5714 10.7528 23.5714 8.49882C23.5714 6.24479 22.6684 4.08309 21.0609 2.48925C19.4535 0.895409 17.2733 0 15 0C12.7267 0 10.5465 0.895409 8.93908 2.48925C7.33163 4.08309 6.42857 6.24479 6.42857 8.49882C6.42857 10.7528 7.33163 12.9146 8.93908 14.5084C10.5465 16.1022 12.7267 16.9976 15 16.9976ZM11.9397 20.1847C5.34375 20.1847 0 25.4832 0 32.0233C0 33.1122 0.890625 33.9953 1.98884 33.9953H28.0112C29.1094 33.9953 30 33.1122 30 32.0233C30 25.4832 24.6562 20.1847 18.0603 20.1847H11.9397Z" fill="#1E3050"/>
</svg>
