<svg width="20" height="18" viewBox="0 0 20 18" fill="none" xmlns="http://www.w3.org/2000/svg">
<path d="M0 2.75C0 1.37109 1.12109 0.25 2.5 0.25H17.5C18.8789 0.25 20 1.37109 20 2.75V15.25C20 16.6289 18.8789 17.75 17.5 17.75H2.5C1.12109 17.75 0 16.6289 0 15.25V2.75ZM12.6484 6.91016C12.4727 6.65234 12.1836 6.5 11.875 6.5C11.5664 6.5 11.2734 6.65234 11.1016 6.91016L7.70312 11.8945L6.66797 10.6016C6.48828 10.3789 6.21875 10.25 5.9375 10.25C5.65625 10.25 5.38281 10.3789 5.20703 10.6016L2.70703 13.7266C2.48047 14.0078 2.4375 14.3945 2.59375 14.7188C2.75 15.043 3.07812 15.25 3.4375 15.25H7.1875H8.4375H16.5625C16.9102 15.25 17.2305 15.0586 17.3906 14.75C17.5508 14.4414 17.5312 14.0703 17.3359 13.7852L12.6484 6.91016ZM4.375 6.5C4.87228 6.5 5.34919 6.30246 5.70083 5.95083C6.05246 5.59919 6.25 5.12228 6.25 4.625C6.25 4.12772 6.05246 3.65081 5.70083 3.29917C5.34919 2.94754 4.87228 2.75 4.375 2.75C3.87772 2.75 3.40081 2.94754 3.04917 3.29917C2.69754 3.65081 2.5 4.12772 2.5 4.625C2.5 5.12228 2.69754 5.59919 3.04917 5.95083C3.40081 6.30246 3.87772 6.5 4.375 6.5Z" fill="#3CC895"/>
</svg>
