<svg width="30" height="28" viewBox="0 0 30 28" fill="none" xmlns="http://www.w3.org/2000/svg">
<path d="M22.1426 5.20508L29.3379 12.4004C29.7598 12.8223 30 13.4023 30 14C30 14.5977 29.7598 15.1777 29.3379 15.5996L22.1426 22.7949C21.7676 23.1699 21.2637 23.375 20.7363 23.375C19.6406 23.375 18.75 22.4844 18.75 21.3887V17.75H11.25C10.2129 17.75 9.375 16.9121 9.375 15.875V12.125C9.375 11.0879 10.2129 10.25 11.25 10.25H18.75V6.61133C18.75 5.51562 19.6406 4.625 20.7363 4.625C21.2637 4.625 21.7676 4.83594 22.1426 5.20508ZM9.375 4.625H5.625C4.58789 4.625 3.75 5.46289 3.75 6.5V21.5C3.75 22.5371 4.58789 23.375 5.625 23.375H9.375C10.4121 23.375 11.25 24.2129 11.25 25.25C11.25 26.2871 10.4121 27.125 9.375 27.125H5.625C2.51953 27.125 0 24.6055 0 21.5V6.5C0 3.39453 2.51953 0.875 5.625 0.875H9.375C10.4121 0.875 11.25 1.71289 11.25 2.75C11.25 3.78711 10.4121 4.625 9.375 4.625Z" fill="white"/>
</svg>
