<svg width="63" height="56" viewBox="0 0 63 56" fill="none" xmlns="http://www.w3.org/2000/svg">
<path d="M5.25 0C2.35156 0 0 2.35156 0 5.25V28H15.75C16.7125 28 17.5 28.7875 17.5 29.75C17.5 30.7125 16.7125 31.5 15.75 31.5H0V38.5H15.75C16.7125 38.5 17.5 39.2875 17.5 40.25C17.5 41.2125 16.7125 42 15.75 42H0V50.75C0 53.6484 2.35156 56 5.25 56H29.0828C28.3937 54.8844 28 53.5719 28 52.1609C28 47.0312 30.8219 42.5578 35 40.2172V29.7281V5.25C35 2.35156 32.6484 0 29.75 0H5.25ZM16.625 7H18.375C19.3375 7 20.125 7.7875 20.125 8.75V11.375H22.75C23.7125 11.375 24.5 12.1625 24.5 13.125V14.875C24.5 15.8375 23.7125 16.625 22.75 16.625H20.125V19.25C20.125 20.2125 19.3375 21 18.375 21H16.625C15.6625 21 14.875 20.2125 14.875 19.25V16.625H12.25C11.2875 16.625 10.5 15.8375 10.5 14.875V13.125C10.5 12.1625 11.2875 11.375 12.25 11.375H14.875V8.75C14.875 7.7875 15.6625 7 16.625 7ZM56 29.75C56 27.4294 55.0781 25.2038 53.4372 23.5628C51.7962 21.9219 49.5706 21 47.25 21C44.9294 21 42.7038 21.9219 41.0628 23.5628C39.4219 25.2038 38.5 27.4294 38.5 29.75C38.5 32.0706 39.4219 34.2962 41.0628 35.9372C42.7038 37.5781 44.9294 38.5 47.25 38.5C49.5706 38.5 51.7962 37.5781 53.4372 35.9372C55.0781 34.2962 56 32.0706 56 29.75ZM31.5 52.1828C31.5 54.2938 33.2062 56 35.3172 56H59.1828C61.2937 56 63 54.2938 63 52.1828C63 46.5609 58.4391 42 52.8172 42H41.6828C36.0609 42 31.5 46.5609 31.5 52.1828Z" fill="white"/>
</svg>
