<svg width="30" height="25" viewBox="0 0 30 25" fill="none" xmlns="http://www.w3.org/2000/svg">
<path d="M9 3.125C9 1.88281 10.0078 0.875 11.25 0.875H18.75C19.9922 0.875 21 1.88281 21 3.125V24.875H17.25V21.125C17.25 19.8828 16.2422 18.875 15 18.875C13.7578 18.875 12.75 19.8828 12.75 21.125V24.875H9V3.125ZM2.25 5.375H7.5V24.875H2.25C1.00781 24.875 0 23.8672 0 22.625V15.875H3.75C4.1625 15.875 4.5 15.5375 4.5 15.125C4.5 14.7125 4.1625 14.375 3.75 14.375H0V11.375H3.75C4.1625 11.375 4.5 11.0375 4.5 10.625C4.5 10.2125 4.1625 9.875 3.75 9.875H0V7.625C0 6.38281 1.00781 5.375 2.25 5.375ZM27.75 5.375C28.9922 5.375 30 6.38281 30 7.625V9.875H26.25C25.8375 9.875 25.5 10.2125 25.5 10.625C25.5 11.0375 25.8375 11.375 26.25 11.375H30V14.375H26.25C25.8375 14.375 25.5 14.7125 25.5 15.125C25.5 15.5375 25.8375 15.875 26.25 15.875H30V22.625C30 23.8672 28.9922 24.875 27.75 24.875H22.5V5.375H27.75ZM14.625 3.875C14.2125 3.875 13.875 4.2125 13.875 4.625V5.75H12.75C12.3375 5.75 12 6.0875 12 6.5V7.25C12 7.6625 12.3375 8 12.75 8H13.875V9.125C13.875 9.5375 14.2125 9.875 14.625 9.875H15.375C15.7875 9.875 16.125 9.5375 16.125 9.125V8H17.25C17.6625 8 18 7.6625 18 7.25V6.5C18 6.0875 17.6625 5.75 17.25 5.75H16.125V4.625C16.125 4.2125 15.7875 3.875 15.375 3.875H14.625Z" fill="white"/>
</svg>
