<svg width="30" height="29" viewBox="0 0 30 29" fill="none" xmlns="http://www.w3.org/2000/svg">
<path d="M10.7812 2.8125H19.2188C19.4766 2.8125 19.6875 3.02344 19.6875 3.28125V5.625H10.3125V3.28125C10.3125 3.02344 10.5234 2.8125 10.7812 2.8125ZM7.5 3.28125V5.625V7.5V28.125H22.5V7.5V5.625V3.28125C22.5 1.4707 21.0293 0 19.2188 0H10.7812C8.9707 0 7.5 1.4707 7.5 3.28125ZM5.625 5.625H3.75C1.68164 5.625 0 7.30664 0 9.375V24.375C0 26.4434 1.68164 28.125 3.75 28.125H5.625V5.625ZM24.375 28.125H26.25C28.3184 28.125 30 26.4434 30 24.375V9.375C30 7.30664 28.3184 5.625 26.25 5.625H24.375V28.125ZM13.125 12.1875C13.125 11.6719 13.5469 11.25 14.0625 11.25H15.9375C16.4531 11.25 16.875 11.6719 16.875 12.1875V15H19.6875C20.2031 15 20.625 15.4219 20.625 15.9375V17.8125C20.625 18.3281 20.2031 18.75 19.6875 18.75H16.875V21.5625C16.875 22.0781 16.4531 22.5 15.9375 22.5H14.0625C13.5469 22.5 13.125 22.0781 13.125 21.5625V18.75H10.3125C9.79688 18.75 9.375 18.3281 9.375 17.8125V15.9375C9.375 15.4219 9.79688 15 10.3125 15H13.125V12.1875Z" fill="#1E3050"/>
</svg>
