<svg width="30" height="31" viewBox="0 0 30 31" fill="none" xmlns="http://www.w3.org/2000/svg">
<g clip-path="url(#clip0_589_838)">
<path d="M8.57143 0.875C9.7567 0.875 10.7143 1.71289 10.7143 2.75V4.625H19.2857V2.75C19.2857 1.71289 20.2433 0.875 21.4286 0.875C22.6138 0.875 23.5714 1.71289 23.5714 2.75V4.625H26.7857C28.5603 4.625 30 5.88477 30 7.4375V10.25H0V7.4375C0 5.88477 1.43973 4.625 3.21429 4.625H6.42857V2.75C6.42857 1.71289 7.38616 0.875 8.57143 0.875ZM0 12.125H30V28.0625C30 29.6152 28.5603 30.875 26.7857 30.875H3.21429C1.43973 30.875 0 29.6152 0 28.0625V12.125ZM22.0312 18.7461C22.6607 18.1953 22.6607 17.3047 22.0312 16.7598C21.4018 16.2148 20.3839 16.209 19.7612 16.7598L13.3996 22.3262L10.2522 19.5723C9.62277 19.0215 8.60491 19.0215 7.98214 19.5723C7.35937 20.123 7.35268 21.0137 7.98214 21.5586L12.2679 25.3086C12.8973 25.8594 13.9152 25.8594 14.5379 25.3086L22.0312 18.7461Z" fill="white"/>
</g>
<defs>
<clipPath id="clip0_589_838">
<rect width="30" height="30" fill="white" transform="translate(0 0.875)"/>
</clipPath>
</defs>
</svg>
