<svg width="40" height="36" viewBox="0 0 40 36" fill="none" xmlns="http://www.w3.org/2000/svg">
<path d="M13.125 4.25C12.0859 4.25 11.25 5.08594 11.25 6.125V29.875C11.25 30.5312 11.1406 31.1641 10.9297 31.75H34.375C35.4141 31.75 36.25 30.9141 36.25 29.875V6.125C36.25 5.08594 35.4141 4.25 34.375 4.25H13.125ZM5.625 35.5C2.51562 35.5 0 32.9844 0 29.875V6.75C0 5.71094 0.835938 4.875 1.875 4.875C2.91406 4.875 3.75 5.71094 3.75 6.75V29.875C3.75 30.9141 4.58594 31.75 5.625 31.75C6.66406 31.75 7.5 30.9141 7.5 29.875V6.125C7.5 3.01562 10.0156 0.5 13.125 0.5H34.375C37.4844 0.5 40 3.01562 40 6.125V29.875C40 32.9844 37.4844 35.5 34.375 35.5H5.625ZM13.75 8.625C13.75 7.58594 14.5859 6.75 15.625 6.75H23.125C24.1641 6.75 25 7.58594 25 8.625V14.875C25 15.9141 24.1641 16.75 23.125 16.75H15.625C14.5859 16.75 13.75 15.9141 13.75 14.875V8.625ZM29.375 6.75H31.875C32.9141 6.75 33.75 7.58594 33.75 8.625C33.75 9.66406 32.9141 10.5 31.875 10.5H29.375C28.3359 10.5 27.5 9.66406 27.5 8.625C27.5 7.58594 28.3359 6.75 29.375 6.75ZM29.375 13H31.875C32.9141 13 33.75 13.8359 33.75 14.875C33.75 15.9141 32.9141 16.75 31.875 16.75H29.375C28.3359 16.75 27.5 15.9141 27.5 14.875C27.5 13.8359 28.3359 13 29.375 13ZM15.625 19.25H31.875C32.9141 19.25 33.75 20.0859 33.75 21.125C33.75 22.1641 32.9141 23 31.875 23H15.625C14.5859 23 13.75 22.1641 13.75 21.125C13.75 20.0859 14.5859 19.25 15.625 19.25ZM15.625 25.5H31.875C32.9141 25.5 33.75 26.3359 33.75 27.375C33.75 28.4141 32.9141 29.25 31.875 29.25H15.625C14.5859 29.25 13.75 28.4141 13.75 27.375C13.75 26.3359 14.5859 25.5 15.625 25.5Z" fill="#1E3050"/>
</svg>
