<svg width="30" height="28" viewBox="0 0 30 28" fill="none" xmlns="http://www.w3.org/2000/svg">
<g clip-path="url(#clip0_589_829)">
<path d="M22.65 1.375L24.5625 4.20869H28.875C29.4984 4.20869 30 4.76605 30 5.45885C30 6.15164 29.4984 6.709 28.875 6.709H24C23.6437 6.709 23.3109 6.52148 23.1 6.20894L21.9703 4.53686L19.7672 9.74063C19.5938 10.1469 19.2375 10.423 18.8344 10.4543C18.4312 10.4855 18.0422 10.2772 17.8172 9.90211L15.9 6.709H10.125C9.50156 6.709 9 6.15164 9 5.45885C9 4.76605 9.50156 4.20869 10.125 4.20869H16.5C16.875 4.20869 17.2266 4.41705 17.4375 4.76605L18.5812 6.67254L20.7328 1.59378C20.9016 1.1979 21.2437 0.927029 21.6375 0.880148C22.0312 0.833267 22.4156 1.02079 22.65 1.375ZM15 9.20932H15.5953L16.5656 10.8293C17.0906 11.7044 18 12.1993 18.9422 12.1211C19.8844 12.043 20.7188 11.4075 21.1219 10.4543L21.6516 9.20932H25.5C27.9844 9.20932 30 11.4492 30 14.2099V25.8781C30 26.8001 29.3297 27.5449 28.5 27.5449C27.6703 27.5449 27 26.8001 27 25.8781V24.2112H16.5H15H3V25.8781C3 26.8001 2.32969 27.5449 1.5 27.5449C0.670312 27.5449 0 26.8001 0 25.8781V5.87556C0 4.95357 0.670312 4.20869 1.5 4.20869C2.32969 4.20869 3 4.95357 3 5.87556V19.2106H13.5V10.8762C13.5 9.9542 14.1703 9.20932 15 9.20932ZM8.25 9.20932C9.24456 9.20932 10.1984 9.64836 10.9017 10.4299C11.6049 11.2114 12 12.2713 12 13.3765C12 14.4817 11.6049 15.5416 10.9017 16.3231C10.1984 17.1046 9.24456 17.5437 8.25 17.5437C7.25544 17.5437 6.30161 17.1046 5.59835 16.3231C4.89509 15.5416 4.5 14.4817 4.5 13.3765C4.5 12.2713 4.89509 11.2114 5.59835 10.4299C6.30161 9.64836 7.25544 9.20932 8.25 9.20932Z" fill="white"/>
</g>
<defs>
<clipPath id="clip0_589_829">
<rect width="30" height="26.67" fill="white" transform="translate(0 0.875)"/>
</clipPath>
</defs>
</svg>
