<svg width="45" height="60" viewBox="0 0 45 60" fill="none" xmlns="http://www.w3.org/2000/svg">
<g id="person-pregnant-solid 1">
<path id="Vector" d="M22.4999 0C23.9917 0 25.4225 0.592632 26.4774 1.64752C27.5323 2.70242 28.1249 4.13316 28.1249 5.625C28.1249 7.11684 27.5323 8.54758 26.4774 9.60248C25.4225 10.6574 23.9917 11.25 22.4999 11.25C21.0081 11.25 19.5773 10.6574 18.5224 9.60248C17.4675 8.54758 16.8749 7.11684 16.8749 5.625C16.8749 4.13316 17.4675 2.70242 18.5224 1.64752C19.5773 0.592632 21.0081 0 22.4999 0ZM14.0624 44.8828C12.4452 44.4609 11.2499 42.9961 11.2499 41.25V34.793L10.7108 35.6836C9.64443 37.4531 7.33583 38.0273 5.5663 36.9609C3.79677 35.8945 3.22255 33.5859 4.28896 31.8164L11.121 20.4492C12.8788 17.5312 15.8436 15.5859 19.1718 15.1055C19.6522 15.0352 20.1327 14.9883 20.6366 14.9883H20.7655H22.2304H22.4999C22.664 14.9883 22.828 15 22.9804 15.0234C27.164 15.3633 30.6444 18.457 31.4296 22.6406L32.1444 26.4492C37.3358 27.457 41.2499 32.0156 41.2499 37.5V41.25C41.2499 43.3242 39.5741 45 37.4999 45H35.6249H30.9374V56.25C30.9374 58.3242 29.2616 60 27.1874 60C25.1132 60 23.4374 58.3242 23.4374 56.25V45H22.4999H21.5624V56.25C21.5624 58.3242 19.8866 60 17.8124 60C15.7382 60 14.0624 58.3242 14.0624 56.25V44.8828Z" fill="#1E3050"/>
</g>
</svg>
