<svg width="30" height="28" viewBox="0 0 30 28" fill="none" xmlns="http://www.w3.org/2000/svg">
<path d="M3.33333 7.4375C3.33333 5.88477 4.45313 4.625 5.83333 4.625C7.21354 4.625 8.33333 5.88477 8.33333 7.4375V14H3.33333V7.4375ZM0 7.4375V20.5625C0 24.1895 2.60938 27.125 5.83333 27.125C9.05729 27.125 11.6667 24.1895 11.6667 20.5625V10.1094C11.7604 11.2285 12.0938 12.3359 12.6979 13.3203L19.3906 24.2949C21.2396 27.3242 24.875 28.0625 27.5156 25.9414C30.1563 23.8203 30.7969 19.6426 28.9479 16.6133L22.2552 5.63867C20.4063 2.60352 16.7656 1.87109 14.1302 3.99219C12.6719 5.16406 11.8229 6.96875 11.6667 8.85547V7.4375C11.6667 3.81055 9.05729 0.875 5.83333 0.875C2.60938 0.875 0 3.81055 0 7.4375ZM15.4479 11.1992C14.6146 9.83398 14.9271 7.95898 16.0677 7.03906C17.1719 6.1543 18.6979 6.43555 19.5052 7.75391L22.9948 13.4727L18.8333 16.7539L15.4479 11.1992ZM25.5729 22.8887C25.5313 22.9238 25.4896 22.9531 25.4479 22.9824L25.6563 22.8184C25.6302 22.8418 25.6042 22.8652 25.5729 22.8887Z" fill="#1E3050"/>
</svg>
