<svg width="28" height="29" viewBox="0 0 28 29" fill="none" xmlns="http://www.w3.org/2000/svg">
<path d="M16.143 2.35672C16.143 1.17146 15.1854 0.213867 14.0001 0.213867C12.8148 0.213867 11.8572 1.17146 11.8572 2.35672V11.9996H2.21439C1.02912 11.9996 0.0715332 12.9572 0.0715332 14.1424C0.0715332 15.3277 1.02912 16.2853 2.21439 16.2853H11.8572V25.9282C11.8572 27.1134 12.8148 28.071 14.0001 28.071C15.1854 28.071 16.143 27.1134 16.143 25.9282V16.2853H25.7858C26.9711 16.2853 27.9287 15.3277 27.9287 14.1424C27.9287 12.9572 26.9711 11.9996 25.7858 11.9996H16.143V2.35672Z" fill="white"/>
</svg>
