<svg width="30" height="27" viewBox="0 0 30 27" fill="none" xmlns="http://www.w3.org/2000/svg">
<path d="M3.33333 3.33301C1.49479 3.33301 0 4.8278 0 6.66634V19.9997C0 21.8382 1.49479 23.333 3.33333 23.333H26.6667C28.5052 23.333 30 21.8382 30 19.9997V6.66634C30 4.8278 28.5052 3.33301 26.6667 3.33301H3.33333ZM14.1667 9.99967H25.8333C26.2917 9.99967 26.6667 10.3747 26.6667 10.833C26.6667 11.2913 26.2917 11.6663 25.8333 11.6663H14.1667C13.7083 11.6663 13.3333 11.2913 13.3333 10.833C13.3333 10.3747 13.7083 9.99967 14.1667 9.99967ZM13.3333 15.833C13.3333 15.3747 13.7083 14.9997 14.1667 14.9997H25.8333C26.2917 14.9997 26.6667 15.3747 26.6667 15.833C26.6667 16.2913 26.2917 16.6663 25.8333 16.6663H14.1667C13.7083 16.6663 13.3333 16.2913 13.3333 15.833ZM8.54167 7.91634V8.6403C8.93229 8.7028 9.30208 8.79134 9.64062 8.88509C10.1979 9.03092 10.526 9.60384 10.3802 10.1611C10.2344 10.7184 9.66146 11.0465 9.10417 10.9007C8.53125 10.7497 7.97917 10.6403 7.47917 10.6299C7.06771 10.6247 6.64583 10.7236 6.35938 10.8903C6.10938 11.0361 6.03646 11.182 6.03646 11.3747C6.03646 11.4684 6.04167 11.557 6.3125 11.7236C6.64062 11.9215 7.11979 12.0726 7.78646 12.2705L7.82292 12.2809C8.40625 12.458 9.15625 12.682 9.75521 13.0622C10.4271 13.484 11.0208 14.1715 11.0365 15.2288C11.0521 16.3174 10.4896 17.109 9.74479 17.5726C9.36979 17.807 8.95312 17.9528 8.53646 18.0413V18.7497C8.53646 19.3226 8.06771 19.7913 7.49479 19.7913C6.92187 19.7913 6.45312 19.3226 6.45312 18.7497V17.9893C5.91667 17.8747 5.41146 17.7028 4.98437 17.5518C4.875 17.5153 4.77083 17.4788 4.66667 17.4424C4.11979 17.2601 3.82812 16.6715 4.01042 16.1247C4.19271 15.5778 4.78125 15.2861 5.32812 15.4684C5.45833 15.5101 5.58333 15.557 5.70312 15.5934C6.41146 15.833 6.95312 16.0153 7.53125 16.0361C7.97917 16.0518 8.39062 15.9528 8.64583 15.7913C8.85938 15.6611 8.95833 15.5049 8.95312 15.2445C8.95312 15.0934 8.91146 14.984 8.64583 14.8174C8.31771 14.609 7.84375 14.458 7.1875 14.2601L7.09896 14.234C6.53125 14.0622 5.81771 13.8486 5.24479 13.5049C4.58333 13.1038 3.96354 12.4372 3.95833 11.3851C3.95312 10.2861 4.57292 9.52572 5.30208 9.09863C5.66146 8.88509 6.05729 8.74447 6.45833 8.65592V7.91634C6.45833 7.34342 6.92708 6.87467 7.5 6.87467C8.07292 6.87467 8.54167 7.34342 8.54167 7.91634Z" fill="#1E3050"/>
</svg>
