<svg width="30" height="36" viewBox="0 0 30 36" fill="none" xmlns="http://www.w3.org/2000/svg">
<path d="M16.5844 4.57291L15.4781 1.30533C15.2953 0.737949 14.7234 0.717441 14.5219 1.30533L13.4156 4.57291L10.9641 5.08561C10.5281 5.18131 10.3406 5.96744 10.6641 6.43912L12.4453 8.96842L12.0234 12.5299C11.9578 13.1657 12.4078 13.6579 12.8109 13.3639L15.0094 11.6686L17.1937 13.3366C17.5969 13.6305 18.0516 13.1383 17.9813 12.5026L17.5594 8.94107L19.3406 6.43912C19.6594 5.97428 19.4766 5.18814 19.0406 5.08561L16.5891 4.57291H16.5844ZM12 18.3747C11.1703 18.3747 10.5 19.3522 10.5 20.5622V33.6872C10.5 34.8971 11.1703 35.8747 12 35.8747H18C18.8297 35.8747 19.5 34.8971 19.5 33.6872V20.5622C19.5 19.3522 18.8297 18.3747 18 18.3747H12ZM1.5 22.7497C0.670312 22.7497 0 23.7272 0 24.9372V33.6872C0 34.8971 0.670312 35.8747 1.5 35.8747H7.5C8.32969 35.8747 9 34.8971 9 33.6872V24.9372C9 23.7272 8.32969 22.7497 7.5 22.7497H1.5ZM21 29.3122V33.6872C21 34.8971 21.6703 35.8747 22.5 35.8747H28.5C29.3297 35.8747 30 34.8971 30 33.6872V29.3122C30 28.1022 29.3297 27.1247 28.5 27.1247H22.5C21.6703 27.1247 21 28.1022 21 29.3122Z" fill="white"/>
</svg>
