<svg width="39" height="31" viewBox="0 0 39 31" fill="none" xmlns="http://www.w3.org/2000/svg">
<path d="M19.63 0C20.6809 0 21.53 0.86582 21.53 1.9375V5.8125H28.655C31.0181 5.8125 32.93 7.76211 32.93 10.1719V26.6406C32.93 29.0504 31.0181 31 28.655 31H10.605C8.24188 31 6.33 29.0504 6.33 26.6406V10.1719C6.33 7.76211 8.24188 5.8125 10.605 5.8125H17.73V1.9375C17.73 0.86582 18.5791 0 19.63 0ZM12.98 23.25C12.4575 23.25 12.03 23.6859 12.03 24.2188C12.03 24.7516 12.4575 25.1875 12.98 25.1875H14.88C15.4025 25.1875 15.83 24.7516 15.83 24.2188C15.83 23.6859 15.4025 23.25 14.88 23.25H12.98ZM18.68 23.25C18.1575 23.25 17.73 23.6859 17.73 24.2188C17.73 24.7516 18.1575 25.1875 18.68 25.1875H20.58C21.1025 25.1875 21.53 24.7516 21.53 24.2188C21.53 23.6859 21.1025 23.25 20.58 23.25H18.68ZM24.38 23.25C23.8575 23.25 23.43 23.6859 23.43 24.2188C23.43 24.7516 23.8575 25.1875 24.38 25.1875H26.28C26.8025 25.1875 27.23 24.7516 27.23 24.2188C27.23 23.6859 26.8025 23.25 26.28 23.25H24.38ZM16.305 15.5C16.305 14.8577 16.0548 14.2417 15.6094 13.7875C15.164 13.3333 14.5599 13.0781 13.93 13.0781C13.3001 13.0781 12.696 13.3333 12.2506 13.7875C11.8052 14.2417 11.555 14.8577 11.555 15.5C11.555 16.1423 11.8052 16.7583 12.2506 17.2125C12.696 17.6667 13.3001 17.9219 13.93 17.9219C14.5599 17.9219 15.164 17.6667 15.6094 17.2125C16.0548 16.7583 16.305 16.1423 16.305 15.5ZM25.33 17.9219C25.9599 17.9219 26.564 17.6667 27.0094 17.2125C27.4548 16.7583 27.705 16.1423 27.705 15.5C27.705 14.8577 27.4548 14.2417 27.0094 13.7875C26.564 13.3333 25.9599 13.0781 25.33 13.0781C24.7001 13.0781 24.096 13.3333 23.6506 13.7875C23.2052 14.2417 22.955 14.8577 22.955 15.5C22.955 16.1423 23.2052 16.7583 23.6506 17.2125C24.096 17.6667 24.7001 17.9219 25.33 17.9219ZM3.48 13.5625H4.43V25.1875H3.48C1.90657 25.1875 0.630005 23.8857 0.630005 22.2812V16.4688C0.630005 14.8643 1.90657 13.5625 3.48 13.5625ZM35.78 13.5625C37.3534 13.5625 38.63 14.8643 38.63 16.4688V22.2812C38.63 23.8857 37.3534 25.1875 35.78 25.1875H34.83V13.5625H35.78Z" fill="#1E3050"/>
</svg>
