<svg width="30" height="24" viewBox="0 0 30 24" fill="none" xmlns="http://www.w3.org/2000/svg">
<path d="M15 17.25C15 20.0391 16.3828 22.5047 18.5062 24H6.00469C4.35 24 3.00469 22.6547 3.00469 21V13.4813H1.5C0.65625 13.4813 0 12.825 0 11.9766C0 11.5547 0.140625 11.1797 0.46875 10.8516L12.4875 0.375C12.8156 0.046875 13.1906 0 13.5187 0C13.8469 0 14.2219 0.09375 14.5031 0.328125L24.4734 9.08906C24.075 9.02812 23.6625 9 23.25 9C20.6859 9 18.3984 10.1672 16.8844 12H15V9.75C15 9.3375 14.6625 9 14.25 9H12.75C12.3375 9 12 9.3375 12 9.75V12H9.75C9.3375 12 9 12.3375 9 12.75V14.25C9 14.6625 9.3375 15 9.75 15H12V17.25C12 17.6625 12.3375 18 12.75 18H14.25C14.6625 18 15 17.6625 15 17.25ZM16.5 17.25C16.5 15.4598 17.2112 13.7429 18.477 12.477C19.7429 11.2112 21.4598 10.5 23.25 10.5C25.0402 10.5 26.7571 11.2112 28.023 12.477C29.2888 13.7429 30 15.4598 30 17.25C30 19.0402 29.2888 20.7571 28.023 22.023C26.7571 23.2888 25.0402 24 23.25 24C21.4598 24 19.7429 23.2888 18.477 22.023C17.2112 20.7571 16.5 19.0402 16.5 17.25ZM26.4047 15.2203C26.1141 14.9297 25.6359 14.9297 25.3453 15.2203L22.5 18.0656L21.1547 16.7203C20.8641 16.4297 20.3859 16.4297 20.0953 16.7203C19.8047 17.0109 19.8047 17.4891 20.0953 17.7797L21.9703 19.6547C22.2609 19.9453 22.7391 19.9453 23.0297 19.6547L26.4047 16.2797C26.6953 15.9891 26.6953 15.5109 26.4047 15.2203Z" fill="white"/>
</svg>
