<svg width="20" height="19" viewBox="0 0 20 19" fill="none" xmlns="http://www.w3.org/2000/svg">
<path d="M14.2857 9.27224V8.71314V7.55139C14.2857 7.23191 14.0286 6.97051 13.7143 6.97051H12.5714H12H10.3393C8.52143 6.97051 6.98571 8.18672 6.47143 9.86037C6.35357 9.51911 6.28571 9.14154 6.28571 8.71314C6.28571 6.46588 8.075 4.64701 10.2857 4.64701H12H12.5714H13.7143C14.0286 4.64701 14.2857 4.38562 14.2857 4.06613V2.90438V2.34529L18.0714 5.80876L14.2857 9.27224ZM12 8.71314H12.5714V10.4558C12.5714 11.0984 13.0821 11.6175 13.7143 11.6175H13.8464C14.1286 11.6175 14.4 11.5122 14.6107 11.3198L19.575 6.7781C19.8464 6.53123 20 6.17907 20 5.80876C20 5.43845 19.8464 5.0863 19.575 4.83943L14.6393 0.323112C14.4107 0.116175 14.1179 0 13.8107 0C13.125 0 12.5714 0.562724 12.5714 1.25978V2.90438H12H10.8571H10.2857C7.12857 2.90438 4.57143 5.5038 4.57143 8.71314C4.57143 10.906 5.80714 12.3109 6.85357 13.1024C7.06429 13.2621 7.26429 13.3965 7.45 13.509C7.60714 13.607 7.75357 13.6869 7.875 13.7486C7.99643 13.8103 8.09643 13.8575 8.16786 13.8902C8.24643 13.9265 8.33214 13.941 8.42143 13.941H8.51071C8.86071 13.941 9.14643 13.6506 9.14643 13.2948C9.14643 13.0116 8.95714 12.7611 8.73214 12.5869C8.71786 12.576 8.70714 12.5687 8.69286 12.5578C8.63214 12.5179 8.57143 12.4671 8.51429 12.409C8.48571 12.3799 8.45357 12.3509 8.425 12.3146C8.39643 12.2783 8.36786 12.2456 8.33929 12.2093C8.275 12.1185 8.21429 12.0169 8.16072 11.9007C8.06786 11.6829 8.00714 11.4178 8.00714 11.0875C8.00714 9.77687 9.05357 8.70951 10.3464 8.70951H10.8571H12V8.71314ZM2.57143 1.16175C1.15 1.16175 0 2.33077 0 3.7757V15.9741C0 17.419 1.15 18.588 2.57143 18.588H14.5714C15.9929 18.588 17.1429 17.419 17.1429 15.9741V13.6506C17.1429 13.1677 16.7607 12.7793 16.2857 12.7793C15.8107 12.7793 15.4286 13.1677 15.4286 13.6506V15.9741C15.4286 16.4569 15.0464 16.8454 14.5714 16.8454H2.57143C2.09643 16.8454 1.71429 16.4569 1.71429 15.9741V3.7757C1.71429 3.29284 2.09643 2.90438 2.57143 2.90438H4.85714C5.33214 2.90438 5.71429 2.51592 5.71429 2.03307C5.71429 1.55021 5.33214 1.16175 4.85714 1.16175H2.57143Z" fill="#1E3050"/>
</svg>
