<svg width="25" height="20" viewBox="0 0 25 20" fill="none" xmlns="http://www.w3.org/2000/svg">
<g clip-path="url(#clip0_474_66)">
<path d="M8.75 10C10.0761 10 11.3479 9.47322 12.2855 8.53553C13.2232 7.59785 13.75 6.32608 13.75 5C13.75 3.67392 13.2232 2.40215 12.2855 1.46447C11.3479 0.526784 10.0761 0 8.75 0C7.42392 0 6.15215 0.526784 5.21447 1.46447C4.27678 2.40215 3.75 3.67392 3.75 5C3.75 6.32608 4.27678 7.59785 5.21447 8.53553C6.15215 9.47322 7.42392 10 8.75 10ZM6.96484 11.875C3.11719 11.875 0 14.9922 0 18.8398C0 19.4805 0.519531 20 1.16016 20H16.3398C16.7305 20 17.0742 19.8086 17.2852 19.5117L13.4102 15.6367C12.8281 15.0547 12.5 14.2656 12.5 13.4453V12.1562C11.8789 11.9727 11.2188 11.875 10.5352 11.875H6.96484ZM15 8.75C14.3086 8.75 13.75 9.30859 13.75 10V13.2305C13.75 13.8945 14.0117 14.5312 14.4805 15L18.6758 19.1914C19.4062 19.9219 20.5938 19.9219 21.3281 19.1914L24.1953 16.3242C24.9258 15.5938 24.9258 14.4062 24.1953 13.6719L20 9.48047C19.5312 9.01172 18.8945 8.75 18.2305 8.75H15ZM15.9375 11.875C15.9375 11.6264 16.0363 11.3879 16.2121 11.2121C16.3879 11.0363 16.6264 10.9375 16.875 10.9375C17.1236 10.9375 17.3621 11.0363 17.5379 11.2121C17.7137 11.3879 17.8125 11.6264 17.8125 11.875C17.8125 12.1236 17.7137 12.3621 17.5379 12.5379C17.3621 12.7137 17.1236 12.8125 16.875 12.8125C16.6264 12.8125 16.3879 12.7137 16.2121 12.5379C16.0363 12.3621 15.9375 12.1236 15.9375 11.875Z" fill="#38B7ED"/>
</g>
<defs>
<clipPath id="clip0_474_66">
<rect width="25" height="20" fill="white"/>
</clipPath>
</defs>
</svg>
