<svg width="47" height="47" viewBox="0 0 47 47" fill="none" xmlns="http://www.w3.org/2000/svg">
<path d="M9.375 31.375V6.375C9.375 2.92773 12.1777 0.125 15.625 0.125H40.625C44.0723 0.125 46.875 2.92773 46.875 6.375V25.6621C46.875 27.3223 46.2207 28.9141 45.0488 30.0859L39.3359 35.7988C38.1641 36.9707 36.5723 37.625 34.9121 37.625H15.625C12.1777 37.625 9.375 34.8223 9.375 31.375ZM26.5625 9.5C25.7031 9.5 25 10.2031 25 11.0625V15.75H20.3125C19.4531 15.75 18.75 16.4531 18.75 17.3125V20.4375C18.75 21.2969 19.4531 22 20.3125 22H25V26.6875C25 27.5469 25.7031 28.25 26.5625 28.25H29.6875C30.5469 28.25 31.25 27.5469 31.25 26.6875V22H35.9375C36.7969 22 37.5 21.2969 37.5 20.4375V17.3125C37.5 16.4531 36.7969 15.75 35.9375 15.75H31.25V11.0625C31.25 10.2031 30.5469 9.5 29.6875 9.5H26.5625ZM28.9062 42.3125C30.2051 42.3125 31.25 43.3574 31.25 44.6562C31.25 45.9551 30.2051 47 28.9062 47H13.2812C5.94727 47 0 41.0527 0 33.7188V11.8438C0 10.5449 1.04492 9.5 2.34375 9.5C3.64258 9.5 4.6875 10.5449 4.6875 11.8438V33.7188C4.6875 38.4648 8.53516 42.3125 13.2812 42.3125H28.9062Z" fill="white"/>
</svg>
