<svg width="30" height="30" viewBox="0 0 30 30" fill="none" xmlns="http://www.w3.org/2000/svg">
<g clip-path="url(#clip0_416_35)">
<path d="M8.57143 0C9.7567 0 10.7143 0.837891 10.7143 1.875V3.75H19.2857V1.875C19.2857 0.837891 20.2433 0 21.4286 0C22.6138 0 23.5714 0.837891 23.5714 1.875V3.75H26.7857C28.5603 3.75 30 5.00977 30 6.5625V9.375H0V6.5625C0 5.00977 1.43973 3.75 3.21429 3.75H6.42857V1.875C6.42857 0.837891 7.38616 0 8.57143 0ZM0 11.25H30V27.1875C30 28.7402 28.5603 30 26.7857 30H3.21429C1.43973 30 0 28.7402 0 27.1875V11.25ZM22.0312 17.8711C22.6607 17.3203 22.6607 16.4297 22.0312 15.8848C21.4018 15.3398 20.3839 15.334 19.7612 15.8848L13.3996 21.4512L10.2522 18.6973C9.62277 18.1465 8.60491 18.1465 7.98214 18.6973C7.35937 19.248 7.35268 20.1387 7.98214 20.6836L12.2679 24.4336C12.8973 24.9844 13.9152 24.9844 14.5379 24.4336L22.0312 17.8711Z" fill="#1E3050"/>
</g>
<defs>
<clipPath id="clip0_416_35">
<rect width="30" height="30" fill="white"/>
</clipPath>
</defs>
</svg>
