<svg width="30" height="30" viewBox="0 0 30 30" fill="none" xmlns="http://www.w3.org/2000/svg">
<path d="M0 15C0 18.9782 1.58035 22.7936 4.3934 25.6066C7.20644 28.4196 11.0218 30 15 30C18.9782 30 22.7936 28.4196 25.6066 25.6066C28.4196 22.7936 30 18.9782 30 15C30 11.0218 28.4196 7.20644 25.6066 4.3934C22.7936 1.58035 18.9782 0 15 0C11.0218 0 7.20644 1.58035 4.3934 4.3934C1.58035 7.20644 0 11.0218 0 15ZM14.1211 22.0898C13.5703 22.6406 12.6797 22.6406 12.1348 22.0898C11.5898 21.5391 11.584 20.6484 12.1348 20.1035L17.2324 15.0059L12.1348 9.9082C11.584 9.35742 11.584 8.4668 12.1348 7.92188C12.6855 7.37695 13.5762 7.37109 14.1211 7.92188L20.2148 14.0039C20.7656 14.5547 20.7656 15.4453 20.2148 15.9902L14.1211 22.0898Z" fill="#1E3050"/>
</svg>
