<svg width="30" height="30" viewBox="0 0 30 30" fill="none" xmlns="http://www.w3.org/2000/svg">
<path d="M30 15C30 11.0218 28.4196 7.20644 25.6066 4.3934C22.7936 1.58035 18.9782 0 15 0C11.0218 0 7.20644 1.58035 4.3934 4.3934C1.58035 7.20644 0 11.0218 0 15C0 18.9782 1.58035 22.7936 4.3934 25.6066C7.20644 28.4196 11.0218 30 15 30C18.9782 30 22.7936 28.4196 25.6066 25.6066C28.4196 22.7936 30 18.9782 30 15ZM15.8789 7.91016C16.4297 7.35938 17.3203 7.35938 17.8652 7.91016C18.4102 8.46094 18.416 9.35156 17.8652 9.89648L12.7676 14.9941L17.8652 20.0918C18.416 20.6426 18.416 21.5332 17.8652 22.0781C17.3145 22.623 16.4238 22.6289 15.8789 22.0781L9.78516 15.9961C9.23438 15.4453 9.23438 14.5547 9.78516 14.0098L15.8789 7.91016Z" fill="#1E3050"/>
</svg>
