<svg width="30" height="26" viewBox="0 0 30 26" fill="none" xmlns="http://www.w3.org/2000/svg">
<path d="M15 12.9167C17.2733 12.9167 19.4535 12.2362 21.0609 11.0251C22.6684 9.81389 23.5714 8.17119 23.5714 6.45833C23.5714 4.74548 22.6684 3.10277 21.0609 1.8916C19.4535 0.68043 17.2733 0 15 0C12.7267 0 10.5465 0.68043 8.93908 1.8916C7.33163 3.10277 6.42857 4.74548 6.42857 6.45833C6.42857 8.17119 7.33163 9.81389 8.93908 11.0251C10.5465 12.2362 12.7267 12.9167 15 12.9167ZM11.9397 15.3385C5.34375 15.3385 0 19.3649 0 24.3348C0 25.1623 0.890625 25.8333 1.98884 25.8333H28.0112C29.1094 25.8333 30 25.1623 30 24.3348C30 19.3649 24.6562 15.3385 18.0603 15.3385H11.9397Z" fill="white"/>
</svg>
