<svg width="30" height="30" viewBox="0 0 30 30" fill="none" xmlns="http://www.w3.org/2000/svg">
<g clip-path="url(#clip0_416_62)">
<path d="M28.3229 16.8516C29.2083 16.8516 29.9896 16.0312 29.9896 14.9707C30.0417 14.4434 29.8333 13.9746 29.4167 13.5645L16.1198 0.410156C15.8073 0.117188 15.3906 0 15.026 0C14.6615 0 14.2448 0.0585938 13.8802 0.46875L0.520833 13.5645C0.15625 13.9746 0 14.4434 0 14.9707C0 16.0254 0.729167 16.8516 1.66667 16.8516H3.33333V26.25C3.33333 28.3184 4.82813 30 6.66667 30H23.3594C25.2083 30 26.7031 28.3125 26.6927 26.2324L26.6562 16.8457H28.3229V16.8516ZM13.3333 12.1875C13.3333 11.6719 13.7083 11.25 14.1667 11.25H15.8333C16.2917 11.25 16.6667 11.6719 16.6667 12.1875V15H19.1667C19.625 15 20 15.4219 20 15.9375V17.8125C20 18.3281 19.625 18.75 19.1667 18.75H16.6667V21.5625C16.6667 22.0781 16.2917 22.5 15.8333 22.5H14.1667C13.7083 22.5 13.3333 22.0781 13.3333 21.5625V18.75H10.8333C10.375 18.75 10 18.3281 10 17.8125V15.9375C10 15.4219 10.375 15 10.8333 15H13.3333V12.1875Z" fill="#1E3050"/>
</g>
<defs>
<clipPath id="clip0_416_62">
<rect width="30" height="30" fill="white"/>
</clipPath>
</defs>
</svg>
