<svg width="30" height="30" viewBox="0 0 30 30" fill="none" xmlns="http://www.w3.org/2000/svg">
<path d="M3.215 4.28571V25.7143C3.215 26.3036 3.69725 26.7857 4.28667 26.7857H25.72C26.3094 26.7857 26.7917 26.3036 26.7917 25.7143V9.27455C26.7917 8.9933 26.6778 8.71875 26.4769 8.51786L28.7475 6.24777C29.5512 7.05134 30 8.14286 30 9.28125V25.7143C30 28.0781 28.0777 30 25.7133 30H4.28667C1.9223 30 0 28.0781 0 25.7143V4.28571C0 1.92188 1.9223 0 4.28667 0H20.7301C21.8687 0 22.9605 0.448661 23.7642 1.25223L28.7542 6.24107L26.4836 8.51116L21.4869 3.52902C21.4668 3.50893 21.4534 3.49554 21.4334 3.47545V10.1786C21.4334 11.0692 20.7167 11.7857 19.8259 11.7857H6.96584C6.07502 11.7857 5.35834 11.0692 5.35834 10.1786V3.21429H4.28667C3.69725 3.21429 3.215 3.69643 3.215 4.28571ZM8.57334 3.21429V8.57143H18.2184V3.21429H8.57334ZM10.7167 19.2857C10.7167 18.1491 11.1683 17.059 11.9722 16.2553C12.7761 15.4515 13.8665 15 15.0033 15C16.1402 15 17.2306 15.4515 18.0345 16.2553C18.8384 17.059 19.29 18.1491 19.29 19.2857C19.29 20.4224 18.8384 21.5124 18.0345 22.3162C17.2306 23.1199 16.1402 23.5714 15.0033 23.5714C13.8665 23.5714 12.7761 23.1199 11.9722 22.3162C11.1683 21.5124 10.7167 20.4224 10.7167 19.2857Z" fill="black"/>
</svg>
