<svg width="25" height="23" viewBox="0 0 25 23" fill="none" xmlns="http://www.w3.org/2000/svg">
<path d="M20.3125 9.34375C20.3125 11.4057 19.585 13.3104 18.3594 14.8557L24.541 20.5473C25.1514 21.1088 25.1514 22.0207 24.541 22.5822C23.9307 23.1438 22.9395 23.1438 22.3291 22.5822L16.1475 16.8906C14.4678 18.0227 12.3975 18.6875 10.1562 18.6875C4.5459 18.6875 0 14.5053 0 9.34375C0 4.18223 4.5459 0 10.1562 0C15.7666 0 20.3125 4.18223 20.3125 9.34375ZM10.1562 15.8125C11.0796 15.8125 11.9939 15.6452 12.847 15.3201C13.7001 14.995 14.4752 14.5185 15.1281 13.9178C15.781 13.3172 16.2989 12.6041 16.6523 11.8192C17.0056 11.0344 17.1875 10.1932 17.1875 9.34375C17.1875 8.49426 17.0056 7.65309 16.6523 6.86827C16.2989 6.08344 15.781 5.37033 15.1281 4.76965C14.4752 4.16897 13.7001 3.69249 12.847 3.3674C11.9939 3.04232 11.0796 2.875 10.1562 2.875C9.23289 2.875 8.31858 3.04232 7.46551 3.3674C6.61244 3.69249 5.83732 4.16897 5.18441 4.76965C4.53149 5.37033 4.01358 6.08344 3.66022 6.86827C3.30687 7.65309 3.125 8.49426 3.125 9.34375C3.125 10.1932 3.30687 11.0344 3.66022 11.8192C4.01358 12.6041 4.53149 13.3172 5.18441 13.9178C5.83732 14.5185 6.61244 14.995 7.46551 15.3201C8.31858 15.6452 9.23289 15.8125 10.1562 15.8125Z" fill="#1E3050"/>
</svg>
